<svg width="30" height="30" viewBox="0 0 30 30" fill="none" xmlns="http://www.w3.org/2000/svg">
<g clip-path="url(#clip0_1_1665)">
<path d="M21.25 17.5C21.25 17.8315 21.1183 18.1495 20.8839 18.3839C20.6495 18.6183 20.3315 18.75 20 18.75H10C9.66848 18.75 9.35054 18.6183 9.11612 18.3839C8.8817 18.1495 8.75 17.8315 8.75 17.5C8.75 17.1685 8.8817 16.8506 9.11612 16.6161C9.35054 16.3817 9.66848 16.25 10 16.25H20C20.3315 16.25 20.6495 16.3817 20.8839 16.6161C21.1183 16.8506 21.25 17.1685 21.25 17.5ZM16.25 21.25H10C9.66848 21.25 9.35054 21.3817 9.11612 21.6161C8.8817 21.8506 8.75 22.1685 8.75 22.5C8.75 22.8315 8.8817 23.1495 9.11612 23.3839C9.35054 23.6183 9.66848 23.75 10 23.75H16.25C16.5815 23.75 16.8995 23.6183 17.1339 23.3839C17.3683 23.1495 17.5 22.8315 17.5 22.5C17.5 22.1685 17.3683 21.8506 17.1339 21.6161C16.8995 21.3817 16.5815 21.25 16.25 21.25ZM27.5 13.1063V23.75C27.498 25.407 26.8389 26.9956 25.6672 28.1673C24.4956 29.3389 22.907 29.998 21.25 30H8.75C7.09301 29.998 5.50445 29.3389 4.33278 28.1673C3.1611 26.9956 2.50198 25.407 2.5 23.75V6.25003C2.50198 4.59303 3.1611 3.00448 4.33278 1.8328C5.50445 0.661131 7.09301 0.00201363 8.75 2.88108e-05H14.3938C15.5433 -0.00292985 16.682 0.222013 17.744 0.661853C18.8061 1.10169 19.7704 1.7477 20.5813 2.56253L24.9363 6.92003C25.7515 7.73033 26.398 8.69435 26.838 9.75625C27.2781 10.8181 27.5031 11.9568 27.5 13.1063ZM18.8138 4.33003C18.4204 3.94898 17.9787 3.62118 17.5 3.35503V8.75003C17.5 9.08155 17.6317 9.39949 17.8661 9.63391C18.1005 9.86833 18.4185 10 18.75 10H24.145C23.8787 9.52152 23.5505 9.08021 23.1688 8.68753L18.8138 4.33003ZM25 13.1063C25 12.9 24.96 12.7025 24.9413 12.5H18.75C17.7554 12.5 16.8016 12.1049 16.0984 11.4017C15.3951 10.6984 15 9.74459 15 8.75003V2.55878C14.7975 2.54003 14.5988 2.50003 14.3938 2.50003H8.75C7.75544 2.50003 6.80161 2.89512 6.09835 3.59838C5.39509 4.30164 5 5.25547 5 6.25003V23.75C5 24.7446 5.39509 25.6984 6.09835 26.4017C6.80161 27.1049 7.75544 27.5 8.75 27.5H21.25C22.2446 27.5 23.1984 27.1049 23.9017 26.4017C24.6049 25.6984 25 24.7446 25 23.75V13.1063Z" fill="black"/>
</g>
<defs>
<clipPath id="clip0_1_1665">
<rect width="30" height="30" fill="white"/>
</clipPath>
</defs>
</svg>
