<svg width="30" height="30" viewBox="0 0 30 30" fill="none" xmlns="http://www.w3.org/2000/svg">
<g clip-path="url(#clip0_1_1667)">
<path d="M27.5 13.1063V23.75C27.498 25.407 26.8389 26.9956 25.6672 28.1673C24.4956 29.3389 22.907 29.998 21.25 30H8.75C7.09301 29.998 5.50445 29.3389 4.33277 28.1673C3.1611 26.9956 2.50198 25.407 2.5 23.75V6.25003C2.50198 4.59303 3.1611 3.00448 4.33277 1.8328C5.50445 0.661131 7.09301 0.00201363 8.75 2.88108e-05H14.3938C15.5433 -0.00292985 16.682 0.222013 17.744 0.661853C18.8061 1.10169 19.7704 1.7477 20.5813 2.56253L24.9363 6.92003C25.7515 7.73033 26.398 8.69435 26.838 9.75625C27.2781 10.8181 27.5031 11.9568 27.5 13.1063ZM18.8138 4.33003C18.4204 3.94898 17.9787 3.62118 17.5 3.35503V8.75003C17.5 9.08155 17.6317 9.39949 17.8661 9.63391C18.1005 9.86833 18.4185 10 18.75 10H24.145C23.8787 9.52152 23.5504 9.08021 23.1688 8.68753L18.8138 4.33003ZM25 13.1063C25 12.9 24.96 12.7025 24.9412 12.5H18.75C17.7554 12.5 16.8016 12.1049 16.0984 11.4017C15.3951 10.6984 15 9.74459 15 8.75003V2.55878C14.7975 2.54003 14.5988 2.50003 14.3938 2.50003H8.75C7.75544 2.50003 6.80161 2.89512 6.09835 3.59838C5.39509 4.30164 5 5.25547 5 6.25003V23.75C5 24.7446 5.39509 25.6984 6.09835 26.4017C6.80161 27.1049 7.75544 27.5 8.75 27.5H21.25C22.2446 27.5 23.1984 27.1049 23.9017 26.4017C24.6049 25.6984 25 24.7446 25 23.75V13.1063Z" fill="black"/>
<path d="M18.8312 21.4744C19.2792 21.9224 19.2792 22.6466 18.8312 23.0946L16.983 24.9428C16.3218 25.604 15.4533 25.934 14.5836 25.934C13.7139 25.934 12.8465 25.604 12.1854 24.9428L10.336 23.0946C9.88799 22.6466 9.88799 21.9224 10.336 21.4744C10.784 21.0264 11.5082 21.0264 11.9562 21.4744L13.4378 22.956V14.4791C13.4378 13.8454 13.9511 13.3333 14.5836 13.3333C15.2161 13.3333 15.7295 13.8454 15.7295 14.4791V22.956L17.211 21.4744C17.659 21.0264 18.3832 21.0264 18.8312 21.4744Z" fill="black"/>
</g>
<defs>
<clipPath id="clip0_1_1667">
<rect width="30" height="30" fill="white"/>
</clipPath>
</defs>
</svg>
