<svg width="375" height="348" viewBox="0 0 375 348" fill="none" xmlns="http://www.w3.org/2000/svg">
<mask id="mask0_1_2605" style="mask-type:alpha" maskUnits="userSpaceOnUse" x="0" y="0" width="375" height="348">
<path d="M0 20C0 8.95431 8.95431 0 20 0H375V348H20C8.95431 348 0 339.046 0 328V20Z" fill="url(#paint0_radial_1_2605)"/>
</mask>
<g mask="url(#mask0_1_2605)">
<path d="M822.922 -35.6865C819.404 -0.841913 783.278 36.3606 752.782 36.8846C705.865 37.6705 668.566 7.54173 632.44 -21.5391C626.341 -26.5169 620.007 -31.4946 613.673 -36.4725L609.92 -39.3544C592.326 -52.9778 572.152 -68.4351 550.57 -73.6749C532.272 -77.8667 489.578 -84.4165 474.799 -77.3428C464.008 -72.103 457.909 -57.4316 451.81 -43.0222C447.587 -33.0666 443.834 -23.635 438.439 -17.0852L438.204 -16.8232C419.906 5.70782 419.906 5.70782 419.437 20.9032C419.203 25.619 419.203 31.3828 418.499 39.5044C417.56 50.508 416.153 56.7957 415.215 61.5115C414.511 64.3934 414.042 66.7513 414.042 68.5852C414.042 73.301 417.091 77.2309 426.944 90.3303C456.267 129.105 507.172 128.319 556.434 127.533C618.365 126.747 682.641 125.699 702.815 204.034C705.63 215.299 707.272 226.303 707.272 236.782C707.272 266.125 695.543 291.276 673.258 309.353C640.65 335.814 589.511 342.888 546.113 326.907C446.18 289.966 389.176 201.938 334.752 107.098C285.255 20.9032 271.649 -61.0994 262.735 -131.051C262.031 -136.028 261.796 -141.006 261.796 -145.46C261.796 -174.017 274.699 -187.378 291.119 -204.408C297.453 -210.957 303.787 -217.769 310.59 -226.153C318.097 -235.846 323.258 -248.16 328.418 -259.949C336.629 -279.336 344.37 -297.414 361.495 -305.011C397.855 -320.993 426.475 -281.694 451.575 -247.112C463.07 -231.13 474.095 -215.935 485.121 -207.027C528.519 -171.659 601.944 -182.4 642.996 -214.363C655.898 -224.319 671.85 -243.444 688.506 -263.617C716.421 -297.152 747.855 -335.14 774.598 -341.952C787.031 -345.096 795.711 -344.31 801.341 -339.332C805.798 -335.402 808.144 -328.328 808.144 -318.373C808.144 -301.868 802.044 -278.289 795.711 -253.4C787.735 -222.747 778.821 -188.164 778.821 -158.821C778.821 -144.674 780.697 -133.147 784.92 -123.191C789.611 -111.925 796.18 -102.232 802.748 -92.8001C813.539 -77.3428 823.626 -62.9334 823.626 -42.4982C823.157 -40.1403 823.157 -38.0444 822.922 -35.6865ZM783.512 -122.667C779.524 -132.623 777.413 -144.674 777.413 -158.821C777.413 -188.426 786.327 -223.271 794.303 -253.924C800.637 -278.812 806.736 -302.392 806.736 -318.635C806.736 -328.328 804.625 -334.616 800.402 -338.546C795.242 -343.262 786.796 -343.786 774.833 -340.904C748.559 -334.354 717.125 -296.366 689.444 -263.093C672.554 -242.92 656.602 -223.533 643.7 -213.577C602.179 -181.353 528.284 -170.873 484.417 -206.241C473.392 -215.149 462.366 -230.344 450.637 -246.588C425.771 -280.908 397.621 -319.945 361.964 -304.225C345.308 -296.89 337.567 -278.812 329.591 -259.687C324.43 -247.636 319.27 -235.322 311.528 -225.629C304.96 -217.245 298.392 -210.433 292.058 -203.884C275.871 -187.116 263.204 -173.755 263.204 -145.722C263.204 -141.268 263.438 -136.552 264.142 -131.575C273.056 -61.6234 286.662 20.3793 335.925 106.05C390.114 200.628 447.118 288.394 546.817 325.073C589.745 340.792 640.416 333.98 672.788 307.781C694.839 289.966 706.334 265.339 706.334 236.258C706.334 226.041 704.927 215.037 701.877 204.034C692.963 169.189 674.431 147.444 645.342 136.964C619.303 127.533 587.4 128.057 556.434 128.581C506.937 129.367 455.563 129.891 426.006 90.8543C411.93 72.2531 411.696 71.7291 414.042 60.9876C414.98 56.2718 416.388 49.984 417.326 38.9805C418.03 30.8588 418.264 25.0951 418.264 20.6412C418.733 4.9219 418.733 4.92187 437.266 -18.1332L437.5 -18.3952C442.661 -24.9449 446.649 -34.1145 450.637 -43.8081C456.736 -58.4796 463.07 -73.4129 474.095 -78.9147C489.109 -86.2504 532.038 -79.7007 550.57 -75.2469C572.386 -70.2691 592.56 -54.5497 610.154 -40.9263L613.908 -38.0444C620.241 -33.3286 626.575 -28.0888 632.674 -23.111C668.8 5.96977 705.865 35.8366 752.313 35.0506C782.339 34.5266 817.762 -2.15191 821.28 -36.2105C821.515 -38.3064 821.515 -40.6643 821.515 -42.7602C821.515 -62.9334 811.428 -77.0808 800.872 -92.2762C795.007 -101.446 788.204 -111.139 783.512 -122.667Z" fill="#DCE2E9" fill-opacity="0.29"/>
<path d="M12.902 297.302C25.3349 301.494 32.1379 330.575 32.1379 349.176C32.1379 375.899 27.4462 403.67 22.5199 433.275C17.3591 463.141 12.1982 494.056 12.1982 524.185C12.1982 557.195 18.532 584.704 31.4342 608.545C32.1379 609.855 32.8417 611.165 33.5454 612.475L32.1379 612.475C31.4342 611.427 30.965 610.379 30.2612 609.331C17.1245 585.228 10.7907 557.457 10.7907 524.185C10.7907 494.056 15.9516 463.141 21.1124 433.275C26.0387 403.67 30.7304 375.899 30.7304 349.438C30.7304 330.837 23.6929 302.542 12.4328 298.612C8.67945 297.302 4.69151 298.874 0.468994 303.066L0.468994 301.232C4.69151 297.302 8.91403 295.992 12.902 297.302Z" fill="#DCE2E9" fill-opacity="0.29"/>
<path d="M94.0686 518.159C94.0686 514.753 94.0686 511.347 94.0686 508.204C94.0686 505.06 94.0686 501.916 94.0686 498.772C94.0686 480.957 95.007 466.809 99.2295 451.09C101.575 442.968 104.86 435.108 108.378 427.773C114.008 415.459 119.404 403.67 119.404 389.522C119.404 387.164 119.169 384.807 118.935 382.449C117.527 372.231 112.132 364.371 106.971 356.774C101.106 348.39 95.4761 340.53 95.4761 329.265C95.4761 328.217 95.4761 327.169 95.7107 326.121C96.4145 319.309 101.81 308.306 107.205 297.564C110.724 290.752 114.008 284.203 115.416 279.749C117.527 273.199 118.7 267.959 119.404 264.292C121.75 253.288 122.688 251.978 140.751 246.476C145.677 244.904 150.369 243.856 155.061 242.808C171.951 238.879 185.087 235.997 197.99 215.824C206.435 202.2 210.657 185.171 210.657 163.426C210.657 141.943 206.669 119.411 203.15 99.5003C201.274 89.0207 199.632 79.3271 198.928 71.9914C198.459 67.7996 198.224 61.2499 198.224 54.4381C198.224 35.3129 204.558 12.7819 213.472 11.2099C217.695 10.424 224.263 14.0918 230.597 36.3609L231.301 38.7188C255.463 122.817 286.897 181.241 339.913 240.975C354.457 257.48 361.26 270.055 361.26 280.535C361.26 282.893 360.791 285.513 360.087 287.609C356.334 298.874 343.667 306.996 329.122 316.427C321.616 321.405 312.936 326.907 304.725 333.457C264.846 365.157 235.523 410.481 222.621 461.307C218.868 476.241 216.756 490.912 216.756 504.798C216.756 550.122 236.696 582.084 257.105 612.213L255.697 612.213C235.289 582.084 215.818 550.122 215.818 504.798C215.818 490.912 217.695 475.979 221.683 461.045C234.819 409.958 264.142 364.371 304.256 332.409C312.467 325.859 321.146 320.357 328.653 315.379C343.197 305.948 355.63 298.088 359.149 287.347C359.853 285.251 360.322 282.893 360.322 280.535C360.322 270.317 353.519 258.004 339.209 242.022C285.959 182.289 254.524 123.603 230.128 39.2428L229.424 36.8849C224.732 20.3796 219.102 11.7339 213.707 12.7819C206.2 14.0918 199.397 34.003 199.397 54.7002C199.397 61.2499 199.632 67.7996 200.101 71.9914C200.805 79.3271 202.447 89.0207 204.323 99.5003C207.842 119.411 212.065 142.205 212.065 163.688C212.065 185.695 207.842 203.248 199.162 216.871C186.26 237.307 172.654 240.451 155.53 244.38C151.073 245.428 146.381 246.476 141.455 248.048C123.392 253.288 123.157 254.336 120.811 264.815C120.107 268.483 118.935 273.461 116.823 280.273C115.181 284.989 111.897 291.538 108.613 298.35C103.452 308.306 97.822 319.833 97.1182 326.383C97.1182 327.431 96.8836 328.479 96.8836 329.265C96.8836 340.006 102.279 347.866 108.144 355.988C113.539 363.585 119.169 371.445 120.342 382.187C120.577 384.545 120.811 386.902 120.811 389.26C120.811 403.67 115.181 415.983 109.786 428.035C106.502 435.371 102.983 442.968 100.637 451.09C96.4145 466.547 95.4761 480.695 95.4761 498.51C95.4761 501.654 95.4761 504.798 95.4761 507.942C95.4761 511.347 95.4761 514.491 95.4761 518.159C95.4761 534.14 97.1182 548.55 100.637 561.911C105.094 578.941 110.959 595.708 118.231 612.213L116.823 612.213C109.786 595.708 103.921 578.941 99.4641 562.173C95.9453 548.812 94.0686 534.402 94.0686 518.159Z" fill="#DCE2E9" fill-opacity="0.29"/>
<path d="M36.8296 268.746C49.4972 291.277 55.831 317.738 55.831 349.438C55.831 378.519 50.6701 408.91 45.7438 438.515C40.8176 467.072 35.8913 496.676 35.8913 524.447C35.8913 552.48 41.0522 575.535 51.843 595.184C53.7197 598.59 55.5964 602.258 57.7077 605.926C58.8806 608.284 60.0535 610.38 61.461 612.738L59.5843 612.738C58.4114 610.642 57.4731 608.808 56.3002 606.974C54.1889 603.306 52.3122 599.638 50.4355 596.232C39.6447 576.321 34.2492 552.742 34.2492 524.447C34.2492 496.676 39.1755 467.072 44.1018 438.253C49.028 408.91 54.1889 378.519 54.1889 349.7C54.1889 318.524 48.0897 292.325 35.6567 270.056C27.2117 255.122 18.2975 247.787 9.38324 248.573C6.56823 248.835 3.51863 249.882 0.703614 251.716L0.703613 249.621C3.51863 248.049 6.33364 247.001 9.14866 246.739C18.7666 245.691 28.15 253.026 36.8296 268.746Z" fill="#DCE2E9" fill-opacity="0.29"/>
<path d="M117.762 518.159C117.762 496.152 121.281 472.573 125.034 447.946C129.256 419.913 133.714 391.094 133.714 360.18C133.714 358.084 133.714 355.726 133.714 353.63C133.479 342.888 131.837 333.981 130.429 325.859C129.256 319.047 128.084 313.022 128.084 307.258C128.084 293.634 134.417 283.679 150.135 272.675C157.641 267.435 166.79 263.506 175.47 259.838C190.952 253.288 206.904 246.476 216.522 231.543C219.806 226.303 222.387 216.347 224.967 205.868C229.659 187.529 235.054 166.831 246.08 163.95C259.92 160.544 278.921 192.244 289.243 209.274C291.12 212.418 292.762 215.3 293.935 217.133C307.072 237.307 315.986 253.812 315.986 269.531C315.986 271.627 315.751 273.723 315.517 275.819C313.405 288.395 305.429 299.922 290.416 311.712C246.08 346.818 213.707 397.382 199.163 453.972C194.706 471.263 192.36 488.554 192.36 504.798C192.36 550.122 208.781 583.394 226.844 612.213L225.905 612.213C207.842 583.394 191.421 550.122 191.421 504.798C191.421 488.292 193.767 471.263 198.224 453.71C212.769 396.858 245.376 346.294 289.712 311.188C304.726 299.398 312.467 288.133 314.578 275.819C314.813 273.723 315.047 271.627 315.047 269.531C315.047 254.074 306.368 237.569 293.231 217.657C292.058 215.823 290.416 213.204 288.539 209.798C278.452 192.768 259.685 161.33 246.314 164.736C235.758 167.356 230.362 188.053 225.671 206.13C223.09 216.609 220.51 226.565 216.991 231.805C207.373 247 191.187 253.812 175.704 260.362C167.025 264.03 157.876 267.959 150.369 273.199C134.887 283.941 128.553 293.896 128.553 306.996C128.553 312.76 129.491 318.523 130.899 325.335C132.306 333.457 133.948 342.364 134.183 353.106C134.183 355.202 134.183 357.56 134.183 359.656C134.183 390.57 129.726 419.389 125.503 447.422C121.75 472.311 118.231 495.628 118.231 517.635C118.231 531.259 119.639 543.31 122.454 554.314C127.38 573.439 134.652 592.302 143.566 611.951L142.862 611.951C134.183 592.564 126.911 573.701 121.984 554.576C119.169 544.096 117.762 532.045 117.762 518.159Z" fill="#DCE2E9" fill-opacity="0.29"/>
<path d="M791.488 576.845C793.365 580.251 794.537 585.753 794.537 592.303C794.537 598.066 793.599 605.14 791.722 612.476L790.08 612.476C792.192 605.14 793.13 598.066 793.13 592.303C793.13 586.277 792.192 581.037 790.315 577.893C781.401 562.436 765.918 555.624 749.497 548.551C735.188 542.263 720.643 535.975 710.322 523.4L709.852 523.4L709.852 522.876C698.592 508.466 692.962 489.079 692.962 463.666C692.962 438.777 698.358 412.84 702.58 391.881C705.395 377.472 707.976 365.158 707.976 357.298C707.976 352.583 707.037 349.701 705.395 348.653C703.049 347.081 698.592 348.391 692.259 352.059C662.701 370.136 592.091 406.814 563.003 404.195C540.013 402.099 516.086 389.785 493.096 377.996C459.551 360.704 425.067 342.627 392.225 355.727C354.692 370.66 287.6 436.157 281.736 482.791C281.501 485.411 281.267 488.555 281.267 491.437C281.267 521.828 297.453 566.104 320.911 612.476L319.269 612.476C295.811 566.104 279.859 521.828 279.859 491.437C279.859 488.293 280.094 485.149 280.328 482.529C286.193 435.371 353.988 369.088 391.756 353.893C425.301 340.531 460.02 358.608 493.8 376.162C516.789 387.951 540.248 400.265 563.003 402.361C589.041 404.718 654.96 372.756 691.555 350.487C698.592 346.033 703.284 344.985 706.334 347.081C708.679 348.653 709.852 352.059 709.852 357.298C709.852 365.42 707.272 377.996 704.457 392.405C700.234 413.364 694.839 439.301 694.839 463.666C694.839 488.817 700.234 507.68 711.495 521.828C721.582 534.141 736.126 540.691 750.436 546.717C766.622 554.052 782.339 561.126 791.488 576.845Z" fill="#DCE2E9" fill-opacity="0.29"/>
<path d="M0.468995 -79.4377L0.468995 -81.2716C13.1366 -85.2015 26.977 -88.0834 42.225 -89.9173C68.7331 -92.7992 103.217 -95.419 136.763 -89.3933C161.159 -84.9395 171.95 -76.0318 171.95 -60.5745C171.95 -50.6189 167.728 -39.3533 162.801 -25.9919C159.283 -16.8223 155.764 -7.12868 153.184 2.82691C152.949 3.87486 152.714 4.66081 152.48 5.70876C145.442 34.7896 144.504 67.5382 149.665 102.121C151.072 111.552 153.418 120.984 155.529 129.892C158.814 143.253 162.332 156.877 162.801 171.024C163.036 178.622 162.332 183.861 160.69 187.791C155.764 199.057 143.331 193.555 130.194 187.791C122.453 184.385 114.477 180.98 107.205 180.194C68.9677 177.05 34.0146 200.891 0.703593 232.591L0.703593 230.234C34.0146 198.795 68.9677 175.478 107.205 178.36C114.712 178.884 122.922 182.552 130.663 185.957C143.566 191.721 154.826 196.437 159.048 186.743C160.69 183.337 161.159 178.098 160.925 170.762C160.456 156.877 156.937 143.253 153.653 130.154C151.307 120.984 148.961 111.552 147.788 102.121C142.627 67.2762 143.8 34.2656 150.838 4.92282C151.072 3.87486 151.307 2.8269 151.541 2.04093C154.122 -8.17665 157.641 -17.8703 161.159 -27.0399C166.086 -40.1393 170.308 -51.4049 170.308 -60.8365C170.308 -75.2459 159.986 -83.3675 136.528 -87.8214C103.217 -93.8471 68.7331 -91.2272 42.4596 -88.3453C26.977 -86.5114 13.1366 -83.6295 0.468995 -79.4377Z" fill="#DCE2E9" fill-opacity="0.29"/>
<path d="M463.773 -134.98C463.773 -132.622 460.958 -131.05 454.624 -129.216C430.697 -122.666 399.028 -100.921 382.137 -67.1247C365.013 -33.0661 360.556 -10.2731 358.21 2.0404C357.037 8.06616 356.333 11.21 354.926 11.996C354.457 12.258 353.753 12.258 353.049 11.734C349.296 9.3761 327.948 -32.8042 323.726 -93.8477L323.491 -96.4676C323.022 -101.969 322.788 -106.685 322.788 -111.139C322.788 -127.12 326.776 -139.696 349.296 -169.563C352.814 -174.278 356.099 -178.994 359.383 -183.71C369.235 -198.119 377.915 -210.695 387.533 -209.909C395.04 -209.385 402.312 -201.001 410.757 -183.972C420.14 -165.109 438.672 -153.581 450.871 -145.984C458.612 -141.268 463.773 -138.124 463.773 -134.98ZM410.053 -183.71C401.843 -200.215 394.336 -208.599 387.298 -209.385C377.915 -210.171 369.47 -197.857 359.617 -183.71C356.333 -178.994 353.049 -174.278 349.53 -169.563C327.01 -139.958 323.022 -127.12 323.022 -111.663C323.022 -107.209 323.257 -102.493 323.726 -96.9915L323.961 -94.3717C328.183 -34.9001 349.296 8.32814 353.049 10.4241C353.753 10.948 354.222 10.6861 354.457 10.6861C355.629 10.1621 356.099 6.75622 357.272 1.51643C359.617 -10.7971 364.075 -33.5901 381.199 -67.9107C398.089 -101.969 429.993 -123.714 454.155 -130.264C460.02 -131.836 462.835 -133.408 462.835 -135.242C462.835 -137.862 457.205 -141.268 450.402 -145.722C438.203 -153.057 419.436 -164.585 410.053 -183.71Z" fill="#DCE2E9" fill-opacity="0.29"/>
<path d="M504.122 -130.002C504.122 -127.644 501.776 -126.072 496.381 -125.024C464.008 -118.212 418.264 -103.541 393.867 -54.2867C386.361 -39.0913 380.261 -21.8 375.57 -1.62686C374.631 2.30298 372.051 6.75676 369.471 10.9486C366.186 16.4504 362.902 21.9522 362.902 27.192C362.902 27.7159 362.902 28.5019 363.137 29.0259C363.606 31.9077 365.013 34.0037 366.655 36.0996C368.298 38.4575 369.94 40.8154 369.94 43.6972C369.94 44.7452 369.705 46.0552 369.236 47.3651C368.532 49.461 366.89 50.771 365.483 51.8189C363.371 53.3909 361.495 54.9628 361.729 59.4166C361.964 63.8704 365.013 66.2283 368.298 68.8482C370.643 70.6822 372.755 72.516 374.162 75.136C375.101 76.9699 376.039 80.3758 376.039 83.5196C376.039 85.6155 375.57 87.1875 374.631 87.9734C373.693 88.7594 372.286 89.0214 370.643 88.4974C365.013 86.6635 359.853 73.564 356.568 64.6564C355.63 62.0365 354.692 59.9406 353.988 58.3687C347.889 45.2692 342.493 32.4317 338.271 21.1662C319.973 -25.2059 308.948 -67.6482 304.256 -108.257C303.787 -112.71 303.552 -116.902 303.552 -120.308C303.552 -140.219 311.294 -155.939 337.098 -186.591C343.432 -194.189 348.827 -202.049 353.988 -209.384C365.717 -226.152 375.101 -239.513 386.595 -239.251C395.744 -238.989 405.596 -230.081 417.56 -211.218C436.562 -180.827 465.65 -160.654 484.886 -147.293C496.146 -139.433 504.122 -133.931 504.122 -130.002ZM416.622 -211.218C404.893 -229.819 395.275 -238.727 386.361 -238.989C375.101 -239.251 365.952 -226.152 354.223 -209.384C349.062 -201.787 343.432 -193.927 337.332 -186.329C311.763 -155.677 304.021 -140.219 304.021 -120.57C304.021 -116.902 304.256 -112.972 304.725 -108.518C309.417 -67.9101 320.442 -25.7299 338.505 20.6422C342.728 31.6458 348.123 44.7452 354.223 57.5827C354.926 59.1546 355.865 61.2505 356.803 63.8705C360.087 72.5161 365.248 85.6155 370.409 87.1875C371.816 87.7115 372.989 87.4494 373.693 86.9255C374.631 86.1395 374.866 84.3056 374.866 83.2576C374.866 80.6377 373.928 77.2319 372.989 75.3979C371.816 73.04 369.47 71.2061 367.359 69.3722C364.075 66.7523 360.791 64.1324 360.556 59.4166C360.087 54.4388 362.433 52.8669 364.544 51.2949C365.952 50.247 367.359 49.199 368.063 47.1031C368.532 45.7931 368.767 44.7452 368.767 43.6972C368.767 40.8154 367.359 38.7194 365.717 36.6235C364.31 34.5276 362.668 32.1697 362.198 29.0259C362.198 28.5019 361.964 27.7159 361.964 27.192C361.964 21.6902 365.483 15.9264 368.767 10.4246C371.347 5.97081 373.928 2.04097 374.866 -1.88887C379.558 -22.062 385.657 -39.3533 393.164 -54.5487C417.795 -104.065 463.773 -118.998 496.146 -125.81C500.838 -126.858 503.184 -128.168 503.184 -130.002C503.184 -133.407 495.208 -139.171 483.948 -147.031C464.712 -160.392 435.858 -180.827 416.622 -211.218Z" fill="#DCE2E9" fill-opacity="0.29"/>
<path d="M798.29 -33.3283C796.413 -15.513 785.388 1.51627 770.14 9.63792C756.299 17.2356 732.606 21.1654 699.295 -2.15157C684.986 -12.1072 670.441 -23.1107 656.366 -33.5903C616.252 -63.719 578.484 -92.2758 540.482 -103.803C497.553 -117.165 462.13 -106.423 429.054 -70.2688C400.435 -38.8301 384.014 2.5643 384.014 43.4346C384.014 74.0873 393.632 101.596 411.226 120.721C430.461 141.681 458.846 152.16 492.861 150.85C500.837 150.588 509.047 150.064 517.727 149.802C548.457 148.23 583.411 146.396 612.499 151.898C645.81 158.186 666.453 173.381 675.602 198.27C680.528 211.632 682.874 224.207 682.874 235.735C682.874 256.694 674.664 274.509 659.181 287.346C632.908 309.092 587.633 314.331 546.815 300.446C459.081 270.317 406.768 198.27 350.703 91.3786C308.243 10.162 294.872 -58.2172 287.13 -120.309C286.661 -125.024 286.192 -129.216 286.192 -133.408C286.192 -159.345 297.921 -171.659 312.935 -187.116C318.565 -193.142 324.664 -199.167 330.763 -207.027C337.801 -215.935 342.023 -223.532 345.776 -230.344C351.876 -241.348 357.037 -250.779 370.877 -260.997C398.558 -281.694 415.448 -253.923 433.276 -224.842C442.66 -209.385 452.512 -193.404 464.007 -185.02C536.728 -131.312 614.376 -153.057 662.935 -191.046C676.775 -202.049 689.912 -217.769 703.752 -234.798C720.642 -255.495 738.236 -276.716 757.707 -289.03C766.152 -294.269 771.782 -295.841 775.066 -293.484C777.412 -291.912 778.585 -288.244 778.585 -282.742C778.585 -272.786 774.831 -256.805 770.609 -238.204C764.51 -212.267 757.003 -180.042 757.003 -151.485C757.003 -136.29 759.114 -123.453 763.337 -112.973C767.559 -102.493 773.659 -93.8478 779.523 -85.2021C789.376 -71.3167 798.524 -57.9553 798.524 -39.354C798.759 -37.2581 798.524 -35.4242 798.29 -33.3283ZM762.868 -112.711C758.411 -123.453 756.299 -136.028 756.299 -151.485C756.299 -180.042 763.806 -212.529 769.905 -238.466C774.128 -256.805 777.881 -272.786 777.881 -282.742C777.881 -287.982 776.708 -291.388 774.597 -292.96C771.547 -295.055 765.917 -293.484 757.941 -288.506C738.471 -276.454 721.112 -254.971 704.221 -234.536C690.381 -217.769 677.244 -201.787 663.404 -190.784C635.019 -168.515 602.646 -155.153 569.805 -152.533C532.271 -149.651 496.614 -160.393 463.772 -184.496C452.043 -193.142 442.191 -209.123 432.807 -224.58C415.213 -253.399 398.323 -280.646 371.346 -260.473C357.506 -250.255 352.345 -240.824 346.48 -230.082C342.727 -223.27 338.504 -215.411 331.467 -206.503C325.368 -198.905 319.503 -192.618 313.638 -186.592C298.86 -171.135 287.13 -158.821 287.13 -133.408C287.13 -129.478 287.365 -125.024 288.069 -120.571C295.81 -58.7412 308.947 9.63797 351.641 90.8546C407.707 197.484 459.785 269.531 547.285 299.66C587.868 313.545 632.908 308.306 659.181 286.823C674.429 274.247 682.64 256.432 682.64 235.735C682.64 224.207 680.294 211.894 675.368 198.532C666.453 173.905 646.045 158.972 612.734 152.684C583.645 147.182 548.927 149.016 517.961 150.588C509.282 151.112 501.071 151.374 493.096 151.636C458.846 152.684 430.227 142.205 410.756 121.245C392.928 102.12 383.31 74.3493 383.31 43.4346C383.31 2.3023 399.731 -39.354 428.585 -70.7927C446.179 -89.9179 464.242 -101.969 483.947 -107.209C501.541 -111.925 520.073 -111.139 540.482 -104.589C578.484 -92.7998 616.487 -64.243 656.601 -34.1142C670.676 -23.6347 684.986 -12.6312 699.53 -2.67556C732.606 20.3795 756.065 16.4497 769.671 9.11396C784.684 0.992288 795.475 -15.513 797.352 -33.3283C797.586 -35.4242 797.586 -37.2581 797.586 -39.354C797.586 -57.6933 788.437 -70.7927 778.819 -84.6782C773.189 -93.3238 767.09 -102.231 762.868 -112.711Z" fill="#DCE2E9" fill-opacity="0.29"/>
<path d="M134.183 518.159C134.183 497.724 137.702 474.931 141.221 450.828C145.678 422.009 150.135 392.404 150.135 360.18C150.135 357.822 150.135 355.464 150.135 353.106C150.135 351.272 150.135 349.176 149.9 347.342C149.666 342.364 149.666 337.911 149.666 333.457C149.666 305.686 154.826 288.395 181.569 276.867C198.459 269.793 217.695 261.41 230.128 242.023C233.647 236.521 236.696 231.019 239.277 226.041C245.376 214.776 250.302 205.868 256.871 205.344C262.97 205.082 270.477 211.894 280.798 227.875C290.885 243.071 295.577 255.646 295.577 266.126C295.577 267.174 295.577 267.96 295.577 269.008C294.404 284.203 282.91 294.682 268.6 307.52C262.032 313.546 254.759 320.095 247.722 327.955C217.226 362.014 194.94 403.67 183.446 448.994C178.754 468.119 176.408 486.983 176.408 505.06C176.408 549.598 190.952 583.919 207.608 612.475L206.67 612.475C190.014 583.919 175.704 549.598 175.704 505.06C175.704 486.983 178.285 468.119 182.977 448.994C194.471 403.67 216.757 361.752 247.487 327.693C254.525 319.833 262.032 313.022 268.365 307.258C282.675 294.42 293.7 284.203 295.108 269.27C295.108 268.484 295.108 267.436 295.108 266.388C295.108 255.908 290.182 243.595 280.329 228.661C270.007 212.942 262.97 206.13 256.871 206.392C250.537 206.654 245.845 215.562 239.746 226.565C237.166 231.543 234.116 237.045 230.597 242.547C218.164 262.196 198.694 270.58 181.804 277.653C155.296 288.919 150.369 305.948 150.369 333.457C150.369 337.911 150.369 342.626 150.604 347.342C150.604 349.176 150.604 351.01 150.838 353.106C150.838 355.464 150.838 357.822 150.838 360.18C150.838 392.666 146.381 422.271 141.924 451.09C138.171 475.193 134.887 497.724 134.887 518.159C134.887 529.949 136.06 540.428 138.406 549.86C143.566 570.295 152.011 590.992 162.099 612.475L161.395 612.475C151.542 590.992 143.097 570.295 137.936 550.122C135.356 540.69 134.183 530.211 134.183 518.159Z" fill="#DCE2E9" fill-opacity="0.29"/>
<path d="M67.5602 17.7599C67.5602 21.1657 67.091 25.3575 66.1527 30.0733C65.2143 34.7891 64.276 39.5049 63.8068 43.6968C62.8685 50.7705 62.6339 57.5822 62.3993 63.608C61.9301 70.4197 60.2881 76.7074 57.2385 82.4712C44.5709 106.836 18.2974 117.054 7.74112 120.198C5.16069 121.246 2.81484 122.032 0.468999 122.556L0.468999 121.77C2.58026 120.984 4.92611 120.198 7.50654 119.412C18.0628 116.268 43.8671 106.05 56.5347 81.9472C59.5843 76.1834 61.2264 70.1577 61.461 63.3459C61.6956 57.3202 62.1647 50.5085 62.8685 43.4348C63.3376 39.243 64.276 34.7892 65.2143 29.8114C66.1527 25.0956 66.6218 20.9037 66.6218 17.4978C66.6218 11.7341 65.2143 7.54227 62.6339 5.18436C58.646 1.51652 51.3738 0.992562 39.8792 3.61245L38.0025 4.13642C22.0508 7.54228 9.85238 13.568 0.468995 22.9996L0.468995 21.9517C10.087 12.7821 22.2854 6.75631 38.0025 3.35045L39.8792 2.82648C51.6084 0.206586 59.1151 0.730556 63.3376 4.66039C66.1527 7.54227 67.5602 11.7341 67.5602 17.7599Z" fill="#DCE2E9" fill-opacity="0.29"/>
<path d="M150.369 518.159C150.369 499.296 153.653 477.289 157.172 453.972C161.629 424.629 166.32 393.976 166.32 360.18C166.32 357.822 166.32 355.202 166.32 352.844L166.086 347.08C166.086 342.365 165.851 337.911 165.851 333.719C165.851 297.04 183.914 295.207 203.15 293.373C213.706 292.325 224.497 291.277 233.646 284.727C236.93 282.369 241.153 276.343 245.61 269.794C254.993 255.908 265.55 239.927 275.637 247.524C279.859 250.668 282.205 254.598 282.205 259.314C282.205 261.672 281.501 264.554 280.328 267.174C274.698 279.487 257.574 292.849 243.968 303.328C236.227 309.354 229.658 314.594 228.016 317.476C226.374 320.357 226.139 323.763 226.139 326.645C226.139 327.693 226.139 329.003 226.139 330.051C226.139 331.099 226.139 332.409 226.139 333.457C226.139 337.649 225.67 342.365 222.386 346.556C218.398 351.534 213.003 352.058 208.076 352.844C203.619 353.368 199.162 353.892 195.643 357.298C184.618 367.516 177.111 403.408 171.95 426.987C170.543 434.061 169.135 440.087 167.962 444.54C162.567 465.238 159.987 485.673 159.987 505.322C159.987 549.074 172.889 584.181 188.137 612.738L186.729 612.738C171.481 584.181 158.579 549.074 158.579 505.322C158.579 485.411 161.394 464.976 166.555 444.016C167.728 439.563 168.901 433.537 170.543 426.463C175.938 401.05 183.21 366.468 194.471 355.988C198.458 352.32 203.15 351.796 207.607 351.272C212.768 350.748 217.46 350.224 221.213 345.508C224.263 341.841 224.732 337.387 224.732 333.457C224.732 332.409 224.732 331.099 224.732 330.051C224.732 329.003 224.732 327.693 224.732 326.645C224.732 323.501 224.967 320.095 226.609 316.69C228.251 313.546 234.819 308.568 242.795 302.28C255.697 292.325 273.056 278.701 278.686 266.388C282.205 259.052 280.798 253.288 274.464 248.572C265.315 241.761 255.228 256.956 246.079 270.579C241.387 277.653 237.399 283.417 233.881 286.037C224.497 292.587 213.472 293.635 202.916 294.944C183.445 296.778 166.79 298.612 166.79 333.981C166.79 338.173 166.79 342.627 167.024 347.342L167.259 353.106C167.259 355.464 167.259 358.084 167.259 360.442C167.259 394.5 162.567 424.891 158.11 454.496C154.591 477.813 151.307 499.558 151.307 518.421C151.307 528.377 152.245 537.285 154.357 544.882C159.987 566.103 169.839 588.897 181.099 612.476L179.692 612.476C168.666 588.897 158.814 566.627 153.418 545.144C151.542 537.285 150.369 528.377 150.369 518.159Z" fill="#DCE2E9" fill-opacity="0.29"/>
<path d="M42.9288 22.7373C46.4476 24.8332 48.0896 29.025 48.0896 35.5747C48.0896 37.4087 47.8551 39.2426 47.6205 41.0765C46.6821 48.6742 46.213 56.0099 45.9784 62.2976C45.9784 64.1316 45.5092 65.9655 45.2746 67.5374C44.8055 69.3713 44.1017 71.2053 43.1634 73.0392C35.6567 87.1866 13.8403 103.954 0.468998 104.478L0.468998 103.168C13.3711 102.644 35.1875 85.8767 42.225 72.2532C43.1634 70.6813 43.6325 68.8474 44.1017 67.0134C44.5709 65.4415 44.8055 63.6076 44.8055 61.7737C45.04 55.4859 45.5092 48.1502 46.4476 40.5525C47.6205 31.3829 45.9784 25.6192 42.225 23.2613C36.8296 20.1174 26.7425 23.7852 15.4824 32.6928C9.38321 37.4087 4.45693 43.9584 0.468996 52.604L0.468995 49.9841C4.45693 42.1245 9.14862 36.0987 14.7786 31.6449C26.5079 22.9993 37.0642 19.5934 42.9288 22.7373Z" fill="#DCE2E9" fill-opacity="0.29"/>
<path d="M853.653 -38.3059C849.665 0.730503 808.143 47.1026 776.474 59.6781C721.347 81.4232 677.011 42.9107 634.082 5.7083C592.795 -30.1843 553.619 -63.9808 505.999 -47.4755C464.477 -33.0661 442.192 13.306 442.192 49.7225C442.192 69.3717 448.525 86.139 459.785 97.4045C473.157 110.766 493.566 116.006 518.666 112.6C604.993 100.81 699.531 97.4045 727.446 205.082C730.73 217.396 732.373 229.709 732.373 241.237C732.373 286.561 709.149 315.38 689.678 331.623C652.379 362.8 596.314 373.541 550.57 358.608C511.629 345.77 474.095 320.619 435.389 281.583C377.915 223.683 328.418 144.825 284.316 40.2909L282.44 35.8371C263.907 -8.17713 244.672 -53.5012 234.115 -101.183C233.411 -104.065 232.708 -107.209 232.004 -110.615C228.485 -125.286 224.028 -143.888 224.028 -159.607C224.028 -165.895 224.732 -171.396 226.139 -175.85C228.251 -182.662 232.473 -186.592 236.461 -190.26C239.511 -193.141 242.56 -195.761 244.906 -199.953C246.314 -202.573 248.19 -207.813 250.067 -213.315C253.117 -222.222 256.401 -231.392 259.216 -234.274C265.08 -239.776 268.599 -238.204 272.118 -236.894C274.464 -235.846 276.81 -234.798 280.328 -236.108L283.143 -237.156C304.021 -245.015 304.021 -245.015 308.713 -263.355C309.651 -266.761 310.824 -271.214 312.232 -276.454C316.454 -291.649 323.257 -297.675 329.591 -303.701C334.517 -308.417 339.209 -312.609 342.962 -320.73C342.962 -320.992 342.962 -321.254 342.962 -321.516C342.962 -330.948 347.185 -402.471 362.902 -407.973C367.125 -409.545 371.816 -406.139 376.508 -398.541C382.607 -388.847 383.311 -381.25 383.311 -376.534C383.311 -374.176 383.076 -372.08 382.842 -370.246C382.607 -368.412 382.607 -366.84 382.607 -365.268C382.607 -359.505 384.015 -353.741 401.608 -345.619C405.831 -343.785 409.584 -342.213 412.399 -340.903C426.944 -334.616 427.178 -334.616 433.043 -318.896C434.45 -314.967 436.327 -310.251 438.907 -303.963C447.352 -283.79 456.736 -279.598 468.7 -274.358C475.033 -271.476 482.306 -268.332 490.281 -262.569C498.961 -256.281 505.999 -248.683 512.567 -241.61C524.531 -228.772 535.791 -216.721 554.558 -212.791C587.165 -206.241 618.365 -225.89 647.218 -248.159C661.293 -258.901 677.48 -281.17 694.604 -305.011C723.927 -345.095 757.004 -390.419 787.734 -390.681C805.328 -390.681 818.7 -385.704 827.614 -375.748C837.466 -364.744 842.158 -348.239 842.158 -325.184C842.158 -291.65 832.071 -250.255 823.157 -213.839C816.119 -185.02 810.02 -160.393 810.02 -144.412C810.02 -140.744 810.255 -137.862 810.958 -135.504C814.946 -120.309 823.626 -107.995 832.071 -96.4675C843.096 -81.0102 853.653 -66.3387 853.653 -45.1176C854.122 -42.7597 853.887 -40.4018 853.653 -38.3059ZM809.551 -134.718C808.847 -137.338 808.612 -140.482 808.612 -144.15C808.612 -160.131 814.712 -185.02 821.749 -213.839C830.663 -250.255 840.751 -291.388 840.751 -324.66C840.751 -347.453 836.059 -363.435 826.676 -373.914C817.996 -383.608 804.859 -388.324 787.969 -388.324C757.942 -388.062 725.1 -342.999 696.247 -303.439C678.887 -279.86 662.701 -257.329 648.391 -246.325C619.303 -223.794 587.869 -203.883 554.558 -210.433C535.322 -214.363 523.827 -226.676 511.629 -239.776C505.06 -246.849 498.023 -254.447 489.578 -260.735C481.602 -266.499 474.564 -269.642 468.23 -272.524C455.797 -278.026 446.18 -282.218 437.5 -303.177C434.919 -309.465 433.043 -314.181 431.635 -318.11C425.771 -333.306 425.771 -333.306 411.93 -339.332C408.881 -340.641 405.362 -342.213 401.139 -344.047C384.249 -351.645 380.965 -357.671 380.965 -365.268C380.965 -366.84 381.2 -368.674 381.2 -370.246C381.434 -372.342 381.434 -374.176 381.434 -376.534C381.434 -381.512 380.73 -388.062 374.866 -397.493C370.409 -404.567 366.421 -407.449 362.902 -406.401C349.296 -401.685 344.135 -334.878 344.135 -321.778C344.135 -321.516 344.135 -321.254 344.135 -321.254L343.432 -320.992L344.135 -320.468C340.147 -311.823 335.221 -307.107 330.295 -302.391C323.726 -296.365 317.627 -290.602 313.405 -275.93C311.997 -270.69 310.824 -266.237 309.886 -262.831C304.96 -243.705 304.725 -243.443 283.143 -235.322L280.328 -234.274C276.34 -232.702 273.525 -234.012 270.945 -235.06C267.661 -236.37 264.846 -237.68 259.919 -232.702C257.104 -230.082 254.055 -220.65 251.24 -212.529C249.363 -207.027 247.487 -201.787 246.079 -198.905C243.733 -194.451 240.449 -191.57 237.399 -188.688C233.411 -185.02 229.658 -181.352 227.547 -175.064C226.139 -170.872 225.436 -165.633 225.436 -159.345C225.436 -143.888 229.893 -125.548 233.177 -110.877C233.881 -107.471 234.819 -104.327 235.288 -101.445C245.844 -53.7632 265.08 -8.43912 283.613 35.3131L285.489 39.7669C329.591 144.039 378.854 222.635 436.092 280.273C474.564 319.047 512.098 344.198 550.57 356.774C595.844 371.707 651.206 360.966 688.271 330.051C707.507 314.07 730.261 285.513 730.261 240.975C730.261 229.447 728.619 217.396 725.57 205.344C698.123 99.2385 604.289 102.644 518.666 114.172C493.096 117.578 472.218 112.338 458.378 98.7145C446.649 87.1869 440.315 69.6337 440.315 49.7225C440.315 12.782 463.07 -34.376 505.295 -49.0474C553.619 -65.8148 594.906 -29.9222 634.785 4.66035C677.245 41.6008 721.347 79.5893 775.536 58.3681C806.736 46.0546 847.788 0.468509 851.541 -38.0439C851.776 -40.1398 851.776 -42.2357 851.776 -44.3316C851.776 -64.7668 841.454 -79.1762 830.429 -94.3716C822.688 -106.685 813.773 -118.999 809.551 -134.718Z" fill="#DCE2E9" fill-opacity="0.29"/>
<path d="M85.8594 6.75671C85.8594 15.6643 83.9827 25.6199 82.1061 34.2656C81.1677 38.7194 80.464 42.9112 79.9948 46.317C79.2911 52.6048 78.8219 58.8925 78.5873 64.6563C77.8835 76.9698 77.4144 88.7593 72.7227 97.9289C68.9693 105.527 62.6356 110.766 53.4868 114.696C37.0659 121.508 18.7683 129.63 0.470676 141.419L0.470675 140.633C18.5337 128.844 36.8313 120.722 53.2522 113.91C62.1664 110.242 68.2656 105.003 72.0189 97.6669C76.7106 88.4973 77.1798 76.9698 77.8835 64.6563C78.1181 58.6305 78.5873 52.6048 79.291 46.0551C79.7602 42.6492 80.464 38.4574 81.4023 34.0036C83.0444 25.3579 85.1557 15.6643 85.1557 6.75671C85.1557 -1.88893 83.279 -7.91468 79.291 -12.1065C69.9077 -21.8001 48.3259 -16.8223 36.5967 -14.2024L34.72 -13.6785C21.3487 -10.7966 10.0886 -6.08077 0.236085 0.730951L0.236085 -0.31699C9.85405 -6.86672 21.3487 -11.5825 34.4854 -14.4644L36.3621 -14.9884C48.0913 -17.6083 69.9077 -22.5861 79.5256 -12.6305C83.9827 -8.43869 85.8594 -2.15092 85.8594 6.75671Z" fill="#DCE2E9" fill-opacity="0.29"/>
<path d="M0.469007 209.536L0.469007 207.702C3.5186 204.558 6.33362 201.677 8.91405 199.581C44.1017 170.762 76.4744 157.924 108.143 160.282C120.342 161.33 128.552 159.496 133.009 155.042C135.824 152.161 137.232 148.231 137.232 142.729C137.232 135.131 134.651 125.7 131.836 115.744C129.256 106.836 126.675 97.4048 125.972 88.4972C125.268 81.9474 125.033 75.1357 125.033 68.324C125.033 46.0549 128.083 25.0958 131.602 2.82668C132.071 -0.841162 132.775 -4.77101 133.244 -8.43886L133.244 -8.70086C134.417 -16.5605 135.59 -25.4682 135.59 -34.1138C135.59 -50.3571 130.663 -60.8367 120.811 -66.0765C99.9328 -76.8181 74.8323 -73.9362 52.7813 -71.3163C49.7317 -71.0543 46.9167 -70.5303 43.8671 -70.2683C27.6808 -68.4344 13.3711 -65.2905 0.468995 -60.8367L0.468995 -62.1467C13.3711 -66.6005 27.6808 -69.7444 43.8671 -71.5783C46.6821 -71.8403 49.7317 -72.3642 52.7813 -72.6262C75.0669 -75.2461 100.402 -78.39 121.515 -67.3864C132.071 -61.8847 136.997 -51.1431 136.997 -34.1138C136.997 -25.4682 135.59 -16.2985 134.651 -8.43886L134.651 -8.17686C134.182 -4.50901 133.478 -0.579199 133.009 3.08865C129.725 25.3577 126.441 46.3169 126.441 68.586C126.441 75.6597 126.675 82.2095 127.379 88.7592C128.318 97.4048 130.898 106.836 133.244 115.744C136.059 125.7 138.639 135.393 138.639 142.991C138.639 148.755 137.232 153.208 133.948 156.352C129.256 161.068 120.811 162.902 108.143 161.854C76.709 159.234 44.5709 172.072 9.6178 200.891C7.03737 202.986 3.75319 206.13 0.469007 209.536Z" fill="#DCE2E9" fill-opacity="0.29"/>
<path d="M178.284 201.152C183.914 192.244 186.729 180.193 186.729 163.949C186.729 145.086 182.976 123.865 179.692 105.002C177.815 93.9982 175.938 83.5186 175 75.135C174.531 70.9431 173.592 59.6776 173.592 46.0542C173.592 20.6412 176.642 -12.1074 191.421 -23.111C197.755 -27.8268 205.965 -28.0888 215.348 -23.6349C219.806 -21.539 222.151 -16.2992 224.497 -11.0595C226.374 -6.86763 228.251 -2.67578 231.066 -0.317882C234.35 2.564 239.276 4.1359 243.733 5.70784C249.832 7.80375 256.166 9.89966 259.92 14.8775C264.611 20.9032 266.722 27.7149 266.722 36.0986C266.722 41.8624 265.784 47.8881 264.611 53.6519C263.673 59.4156 262.5 65.1794 262.5 70.6812C262.5 76.1829 263.438 80.8987 265.55 85.0906C270.241 95.5701 276.81 99.762 283.143 104.216C291.354 109.718 299.095 114.957 302.614 132.249C310.121 168.141 318.097 178.097 337.098 201.938C339.444 205.082 342.259 208.225 345.074 211.893C351.877 220.539 359.618 226.827 366.89 232.852C373.458 238.354 380.496 243.856 386.595 251.192C394.336 260.099 397.621 268.483 401.139 276.605C405.597 287.346 409.819 297.826 424.129 306.995L426.475 308.567C444.538 320.357 461.428 332.146 461.428 339.482C461.428 340.53 460.958 341.578 460.255 342.364C457.674 344.984 450.871 345.77 439.377 344.46C432.574 343.674 426.709 338.434 420.845 333.194C414.511 327.43 408.646 322.191 402.078 322.453C394.336 322.715 390.349 328.217 386.361 333.718C383.311 337.91 380.261 342.102 375.57 344.46C364.075 350.486 353.753 351.796 343.666 353.367C329.826 355.201 316.689 357.035 301.91 370.921C275.402 395.81 255.228 430.654 245.375 468.905C242.091 481.742 240.449 493.532 240.449 505.059C240.449 544.358 259.45 572.39 279.859 602.257C282.205 605.663 284.551 609.069 286.662 612.475L284.316 612.475C282.205 609.331 280.094 606.449 278.217 603.305C257.808 573.176 238.572 544.882 238.572 505.059C238.572 493.27 240.214 481.218 243.499 468.381C253.351 429.606 273.76 394.5 300.503 369.349C315.751 355.201 329.122 353.367 343.197 351.272C353.05 349.962 363.137 348.39 374.397 342.626C378.854 340.268 381.903 336.338 384.719 332.408C388.941 326.645 393.164 320.881 401.609 320.357C408.881 320.095 415.214 325.859 421.548 331.36C427.178 336.338 433.043 341.578 439.142 342.364C452.748 343.674 457.205 342.102 458.847 340.792C459.316 340.268 459.551 339.744 459.551 339.22C459.551 331.884 435.623 316.689 425.536 309.877L423.19 308.305C408.412 298.612 404.189 288.132 399.732 277.129C396.448 269.007 393.164 260.885 385.657 252.24C379.558 245.166 372.755 239.402 366.186 234.162C358.68 227.875 350.938 221.587 344.135 212.941C341.32 209.273 338.74 206.13 336.16 202.986C316.924 178.883 308.948 168.927 301.441 132.511C297.922 116.005 290.65 111.028 282.674 105.788C276.106 101.334 269.537 96.8801 264.611 86.1385C262.5 81.6847 261.562 76.7069 261.562 70.9432C261.562 65.1794 262.5 59.1537 263.673 53.3899C264.611 47.6261 265.784 41.8624 265.784 36.3606C265.784 28.5009 263.673 22.2131 259.45 16.1874C255.932 11.7336 250.067 9.63771 243.968 7.54179C239.276 5.96986 234.35 4.13591 230.831 1.25403C227.547 -1.36586 225.67 -5.81969 223.794 -10.0115C221.448 -14.9893 219.336 -19.9671 215.348 -21.801C206.434 -25.9929 198.928 -25.7308 192.828 -21.277C178.753 -10.7974 175.704 21.4272 175.704 46.5782C175.704 60.2016 176.642 71.4671 177.111 75.397C177.815 83.7806 179.692 94.2602 181.803 105.264C185.087 124.127 189.075 145.348 189.075 164.473C189.075 180.979 186.26 193.554 180.395 202.724C165.851 225.779 144.035 218.967 122.922 212.679C100.402 205.868 76.9436 198.794 61.6956 227.089C59.819 230.495 58.8806 234.948 58.8806 240.45C58.8806 257.217 67.0911 281.058 75.067 304.113C82.1045 324.025 88.6729 343.15 88.9074 355.463C88.9074 357.297 88.9074 359.131 88.9074 360.703C88.9075 387.164 84.9195 413.887 80.9316 439.824C76.9436 465.761 72.9557 492.484 72.9557 518.683C72.9557 537.022 74.8324 553.789 79.0549 569.509C82.8083 584.18 87.7345 598.589 93.3646 612.737L91.4879 612.737C85.8579 598.589 81.1662 584.442 77.4128 570.032C73.4249 554.051 71.3136 537.284 71.3136 518.683C71.3136 492.222 75.3015 465.499 79.2895 439.562C83.2774 413.887 87.2654 387.164 87.2654 360.703C87.2654 358.869 87.2654 357.297 87.2654 355.463C87.0308 343.412 80.4624 324.811 73.6595 304.9C65.6836 281.844 57.2385 257.741 57.2385 240.45C57.2385 234.424 58.1769 229.709 60.2881 226.041C76.2399 196.698 100.168 203.772 123.391 210.845C144.035 216.871 164.444 222.897 178.284 201.152Z" fill="#DCE2E9" fill-opacity="0.29"/>
<path d="M118.465 -21.8C118.465 -16.2982 117.761 -9.74849 116.354 -0.0548947C112.6 24.3101 110.958 48.6751 110.958 76.184C110.958 83.2577 110.958 90.3314 111.193 97.9291C111.193 100.549 111.193 102.907 111.193 105.003C111.193 117.84 109.785 125.176 106.501 130.678C102.513 137.227 95.2411 141.157 82.5736 143.777C53.4851 149.803 27.4462 162.64 0.469005 184.648L0.469005 183.6C27.4462 161.592 53.4851 148.755 82.5736 142.729C95.0065 140.109 102.044 136.441 106.032 129.892C109.316 124.652 110.724 117.054 110.724 104.479C110.724 102.383 110.724 100.025 110.724 97.4051C110.489 89.5454 110.489 82.4717 110.489 75.66C110.489 47.8892 112.131 23.5241 115.885 -0.840871C117.292 -10.5345 117.996 -16.8222 117.996 -22.5859C117.996 -38.3053 113.304 -49.8328 90.0803 -53.7627C68.0293 -57.4305 44.5709 -54.2867 28.8537 -50.6188C18.7666 -48.2609 9.3832 -45.379 0.703579 -41.4492L0.703579 -42.2351C9.14862 -46.165 18.532 -49.3088 28.6191 -51.4047C44.3363 -54.8106 67.7947 -58.2165 90.0803 -54.5487C110.02 -50.0948 118.465 -40.9252 118.465 -21.8Z" fill="#DCE2E9" fill-opacity="0.29"/>
<path d="M100.638 -10.7963C100.638 -8.43843 100.404 -5.55655 99.9345 -2.93666C96.8849 17.7605 95.0082 40.2915 94.5391 63.3466C94.3045 68.8483 94.5391 73.8262 94.5391 78.804C94.5391 82.2098 94.7736 85.3537 94.7736 88.2355C94.7736 97.6672 94.0699 107.361 89.3782 114.958C85.3903 121.246 79.0565 125.7 69.4385 128.582C43.8688 136.442 21.1141 147.707 0.236093 162.902L0.236093 161.855C20.8795 146.659 43.6342 135.394 69.2039 127.796C78.5873 124.914 84.9211 120.722 88.6744 114.434C93.3661 107.099 93.8353 97.4052 93.8353 88.2355C93.8353 85.0917 93.8353 81.9478 93.6007 78.804C93.6007 73.8262 93.3661 68.5864 93.6007 63.3466C94.0699 40.2915 95.9466 17.7605 98.9962 -2.93666C100.873 -14.9882 98.527 -23.8958 92.6624 -29.3976C78.8219 -41.9731 48.0913 -35.1613 31.4358 -31.4935C19.9412 -28.8736 9.38488 -25.2057 0.236085 -19.966L0.236085 -20.7519C9.61946 -25.7297 19.9412 -29.3976 31.4358 -32.0175C48.0913 -35.6853 79.2911 -42.4971 93.3661 -29.6596C98.2924 -25.7297 100.638 -19.18 100.638 -10.7963Z" fill="#DCE2E9" fill-opacity="0.29"/>
</g>
<defs>
<radialGradient id="paint0_radial_1_2605" cx="0" cy="0" r="1" gradientUnits="userSpaceOnUse" gradientTransform="translate(192.624 266.157) rotate(-91.3058) scale(214.645 1126.04)">
<stop stop-color="#F0F4F9" stop-opacity="0.34"/>
<stop offset="0.359375" stop-color="#F0F4F9"/>
<stop offset="1" stop-color="#F0F4F9" stop-opacity="0.34"/>
</radialGradient>
</defs>
</svg>
