<svg width="587" height="537" viewBox="0 0 587 537" fill="none" xmlns="http://www.w3.org/2000/svg">
<mask id="mask0_1_1381" style="mask-type:alpha" maskUnits="userSpaceOnUse" x="0" y="0" width="587" height="537">
<path d="M0 20C0 8.95431 8.95431 0 20 0H587V537H20C8.95431 537 0 528.046 0 517V20Z" fill="url(#paint0_radial_1_1381)"/>
</mask>
<g mask="url(#mask0_1_1381)">
<path d="M209.484 109.874C191.421 104.896 186.729 63.7636 181.099 16.0815C179.692 4.29202 178.284 -7.75949 176.642 -19.549C169.37 -71.6848 145.912 -119.367 123.157 -165.739C111.662 -188.794 100.168 -212.373 90.5496 -236.476L92.4262 -236.476C101.81 -212.635 113.304 -189.318 124.564 -166.525C147.319 -120.153 170.777 -72.2089 178.284 -19.811C179.926 -8.02149 181.334 4.29202 182.741 15.8195C187.902 60.8817 193.063 103.324 209.953 108.04C223.09 111.708 243.029 92.5824 271.18 49.3541C310.355 -11.1654 328.653 -61.9913 328.653 -110.721C328.653 -138.23 322.554 -165.739 310.355 -191.938C302.849 -208.181 293.7 -222.591 284.316 -236.476L286.428 -236.476C295.576 -222.853 304.491 -208.705 311.763 -192.724C323.961 -166.001 330.295 -138.492 330.295 -110.459C330.295 -61.4673 311.997 -10.3794 272.587 50.6641C243.499 95.2023 223.559 113.803 209.484 109.874Z" fill="#DCE2E9" fill-opacity="0.29"/>
<path d="M143.331 174.06C143.331 169.607 145.911 163.057 158.11 158.603C171.95 153.363 175 163.581 178.518 174.322C179.222 176.156 179.691 178.252 180.395 180.086C181.803 184.278 182.741 187.946 182.741 190.566C182.741 193.71 181.803 195.806 179.926 197.115C174.296 201.045 161.628 194.758 156.467 191.876C148.257 186.898 143.331 180.348 143.331 174.06ZM179.457 196.068C182.506 193.972 182.506 188.732 179.457 180.61C178.753 178.776 178.049 176.68 177.58 174.846C174.296 164.367 171.481 155.197 158.579 160.175C149.43 163.581 144.504 168.559 144.504 174.584C144.504 180.348 149.195 186.374 157.171 191.09C167.493 196.591 175.703 198.425 179.457 196.068Z" fill="#DCE2E9" fill-opacity="0.29"/>
<path d="M290.65 -180.672C299.799 -160.761 304.021 -143.732 304.021 -127.488C304.021 -110.197 299.329 -95.0018 293.934 -77.4485C290.884 -67.493 287.366 -55.9654 284.551 -43.128C283.143 -36.5782 282.909 -30.8145 282.909 -27.1466C282.909 -24.5267 282.909 -22.1688 283.143 -19.8109C283.143 -17.715 283.378 -15.6191 283.378 -13.5232C283.378 -2.78162 281.032 5.60204 270.006 14.7717C262.5 21.0594 256.635 23.4173 251.474 25.5132C243.733 28.6571 237.634 31.015 228.954 44.6384C226.608 48.0443 224.966 53.0221 223.324 57.9999C220.509 65.8596 218.163 72.4093 214.175 72.6713C210.891 72.9333 207.372 68.7415 202.681 59.3098C197.285 48.3063 196.581 32.3249 196.581 18.1775C196.581 11.8898 196.816 5.34005 196.816 -0.947696C197.051 -7.23543 197.051 -14.0472 197.051 -20.3349C197.051 -34.4823 196.112 -44.4379 194.236 -52.2976C183.445 -97.8837 162.332 -140.588 143.8 -178.314C134.182 -197.964 124.799 -217.351 116.588 -236.476L117.996 -236.476C125.972 -217.613 135.355 -198.488 144.973 -178.838C163.505 -141.112 184.618 -98.1457 195.643 -52.5596C197.52 -44.4379 198.458 -34.4823 198.458 -20.0729C198.458 -13.7852 198.224 -6.97344 198.224 -0.685703C197.989 5.60203 197.989 12.1518 197.989 18.4395C197.989 32.3249 198.693 48.0443 204.088 58.7859C208.311 67.4315 211.595 71.6233 214.41 71.3613C217.694 71.0993 220.04 64.5496 222.386 57.4759C224.028 52.4981 225.905 47.5203 228.25 43.8525C237.165 29.967 243.733 27.3471 251.24 24.2033C256.401 22.1074 262.031 19.7494 269.537 13.7237C280.328 4.81606 282.439 -3.30561 282.439 -13.5232C282.439 -15.6191 282.439 -17.715 282.205 -19.8109C282.205 -22.1688 281.97 -24.5267 281.97 -27.1466C281.97 -30.8145 282.205 -36.8402 283.612 -43.39C286.427 -56.2274 289.946 -67.755 292.996 -77.7105C298.391 -95.2638 302.848 -110.459 302.848 -127.488C302.848 -143.732 298.626 -160.499 289.477 -180.148C281.266 -198.226 270.241 -214.469 259.45 -230.188C258.043 -232.284 256.401 -234.642 254.993 -236.738L256.401 -236.738C257.808 -234.904 258.981 -232.808 260.388 -230.974C271.414 -214.993 282.439 -198.75 290.65 -180.672Z" fill="#DCE2E9" fill-opacity="0.29"/>
<path d="M14.5439 228.555C9.85226 229.865 5.16057 231.175 0.468878 232.485L0.468878 231.175C4.92598 229.865 9.61767 228.817 14.3094 227.507C22.989 225.149 31.9032 222.529 41.2866 220.695C71.7826 213.884 112.131 208.12 151.072 223.053C166.789 229.079 179.926 244.274 191.186 257.636C201.273 269.425 210.187 279.905 217.459 278.857C220.744 278.333 223.793 275.713 226.608 270.473C228.016 268.115 228.485 263.924 228.485 258.16C228.485 237.987 220.509 202.618 212.768 176.419C204.088 147.338 190.482 112.232 174.061 106.73C168.901 104.896 163.505 106.468 158.344 110.922C151.776 116.686 145.911 122.973 140.281 128.999C129.256 141.051 118.699 152.316 103.217 159.652C80.9313 170.393 57.9421 171.703 34.4836 163.582C28.8536 161.748 23.4582 159.652 19.001 157.818C12.1981 155.198 6.0989 153.102 0.703459 151.53L0.703459 150.22C6.33349 151.792 12.4327 154.15 19.4702 156.77C24.1619 158.604 29.3228 160.438 34.9528 162.534C58.1767 170.655 80.9313 169.345 102.982 158.866C118.23 151.53 128.787 140.265 139.812 128.475C145.442 122.449 151.307 116.162 158.11 110.136C163.505 105.42 169.135 103.848 174.765 105.682C191.655 111.184 205.496 146.814 214.175 175.633C222.151 202.094 230.127 237.725 230.127 257.898C230.127 263.924 229.423 268.377 228.016 270.997C224.966 276.761 221.682 279.643 217.929 280.167C209.953 281.215 201.039 270.735 190.717 258.422C179.457 245.06 166.555 230.127 151.072 224.101C112.366 209.168 72.4863 214.932 41.9903 221.743C32.1378 223.577 23.2236 226.197 14.5439 228.555Z" fill="#DCE2E9" fill-opacity="0.29"/>
<path d="M563.238 11.3657C565.114 10.0558 566.991 8.74585 568.399 7.69789C585.054 -5.66356 600.067 -21.1209 616.254 -38.9362C618.365 -41.2941 620.711 -43.652 622.822 -46.2719C635.959 -60.9433 649.565 -75.8767 665.751 -85.0463C672.085 -88.4521 676.777 -89.5001 679.826 -88.1902C681.234 -87.4042 682.172 -86.3562 682.407 -84.7843C682.641 -83.9983 682.641 -83.4743 682.641 -82.6884C682.641 -79.5445 681.234 -75.0907 678.653 -70.3749C673.492 -60.6813 666.924 -51.5117 660.59 -42.604C655.429 -35.2683 650.034 -27.6706 645.577 -20.073C627.045 11.3657 614.612 32.0629 579.893 41.7565C572.621 43.8524 556.2 44.9004 549.163 38.6126C546.817 36.5167 545.644 33.6348 545.644 30.229C546.113 22.8933 555.966 16.3435 563.238 11.3657ZM546.582 31.5389C546.582 34.4208 547.755 36.7787 549.866 38.6126C556.904 44.6384 572.856 43.5904 579.893 41.4945C614.377 31.8009 626.575 11.3657 645.108 -20.073C649.799 -27.9326 654.96 -35.5303 660.121 -42.604C666.455 -51.5117 672.789 -60.6813 678.184 -70.3749C681.468 -76.1386 682.641 -81.3784 681.937 -84.2603C681.468 -85.5703 680.764 -86.6182 679.592 -87.1422C676.777 -88.4521 672.085 -87.4042 665.986 -83.9983C650.034 -75.0907 636.428 -59.8953 623.291 -45.4859C620.945 -43.128 618.834 -40.5081 616.723 -38.1502C600.537 -20.5969 585.523 -4.87758 568.868 8.48387C567.46 9.53182 565.584 10.8418 563.707 12.1517C556.669 16.8675 547.051 23.4173 546.817 31.0149C546.582 31.2769 546.582 31.2769 546.582 31.5389Z" fill="#DCE2E9" fill-opacity="0.29"/>
<path d="M20.6449 97.8226C70.6114 115.9 97.8232 122.974 121.047 78.4354C124.8 71.0997 127.615 62.7161 129.258 53.8085C130.665 46.2108 131.369 37.5651 131.369 28.6575C131.369 -54.1311 69.4385 -167.834 36.1275 -229.14L34.9546 -231.236C34.0162 -233.07 32.8433 -234.904 31.905 -236.738L33.3125 -236.738C34.2508 -235.166 34.9546 -233.594 35.8929 -232.022L37.0658 -229.926C70.6114 -168.358 132.776 -54.3931 132.776 28.9195C132.776 38.0891 132.073 46.4727 130.43 54.3324C128.788 63.502 125.739 71.8857 121.985 79.4834C98.527 124.808 70.846 117.472 20.1758 99.3946C13.842 97.0367 7.03905 94.6788 0.236099 92.5829L0.236099 91.0109C7.50822 93.1068 14.3112 95.4647 20.6449 97.8226Z" fill="#DCE2E9" fill-opacity="0.29"/>
<path d="M27.9171 73.1958C48.0913 80.5315 73.661 87.3433 90.3165 76.6017C98.527 71.0999 104.157 61.6683 106.737 48.5689C107.91 42.5431 108.38 35.9934 108.38 28.9197C108.38 -46.7952 48.5605 -156.569 16.4224 -215.516L10.5578 -226.258C8.68113 -229.664 7.03903 -233.07 5.39694 -236.475L6.1007 -236.475C7.74279 -233.07 9.15029 -229.926 11.027 -226.782L16.8916 -215.778C49.0297 -156.831 108.849 -46.7952 108.849 28.9197C108.849 36.2554 108.38 42.8051 107.207 48.8308C104.626 62.1923 98.9962 71.8859 90.5511 77.3877C73.4265 88.3912 47.8567 81.3175 27.4479 73.9818C18.7683 70.838 9.61948 67.6941 0.236097 65.0742L0.236097 64.2882C9.85406 66.9081 19.0029 70.052 27.9171 73.1958Z" fill="#DCE2E9" fill-opacity="0.29"/>
<path d="M9.38309 11.1041C11.0252 11.6281 12.9019 12.152 15.2477 12.938C26.5078 16.8678 43.3978 22.3696 51.1391 17.1299C54.4233 15.0339 56.3 11.3661 57.2383 6.91227C57.7075 5.07835 57.7075 2.98242 57.7075 0.886503C57.7075 -18.2387 43.867 -47.0575 36.5949 -62.5149C35.1874 -65.3968 34.0144 -68.0166 33.0761 -70.1126L32.3724 -71.4225C31.6686 -72.9944 30.9649 -74.3044 30.4957 -75.6143L28.3844 -80.5921C19.2356 -101.551 9.85225 -121.462 0.468872 -139.54L0.468872 -141.112C10.0868 -122.51 19.4702 -102.337 28.8536 -80.8541L30.9649 -75.8763C31.434 -74.5664 32.1378 -73.2564 32.8415 -71.6845L33.5453 -70.3745C34.4836 -68.5406 35.6565 -65.9207 37.0641 -62.7769C44.5708 -47.3195 58.4112 -18.5007 58.4112 0.886503C58.4112 3.24441 58.1767 5.34033 57.9421 7.17425C57.0037 11.8901 54.8925 15.5579 51.3737 17.9158C43.3978 23.4176 26.2732 17.6538 15.0131 13.724C12.6673 12.938 10.7906 12.414 9.1485 11.8901C6.33349 11.1041 3.28389 10.0562 0.468879 9.27017L0.468879 8.48421C3.51848 9.27017 6.33349 10.3181 9.38309 11.1041Z" fill="#DCE2E9" fill-opacity="0.29"/>
<path d="M5.16057 28.9189C17.5935 32.5867 30.7303 36.5166 43.867 36.7785C61.2263 37.3025 71.0788 29.7048 73.1901 14.5095C73.4247 12.1516 73.6592 9.79365 73.6592 7.17376C73.6592 -19.5491 56.5346 -57.5376 47.3858 -77.9727C46.4474 -80.0686 45.7437 -81.9026 45.0399 -83.4745L42.9287 -88.4523C29.0882 -120.677 14.5439 -150.282 0.468872 -175.433L0.468872 -177.005C14.7785 -151.33 29.5573 -121.463 43.6324 -88.9763L45.7437 -83.9985C46.4474 -82.4265 47.3858 -80.5926 48.0895 -78.4967C57.2383 -58.0616 74.363 -19.8111 74.363 7.17376C74.363 9.79365 74.1284 12.4135 73.8938 14.7714C71.548 30.4908 61.4608 38.3505 43.867 37.8265C30.4957 37.3025 17.359 33.6347 4.92599 29.7048C3.51848 29.1808 1.87639 28.9189 0.468881 28.3949L0.468881 27.6089C2.11097 27.8709 3.51848 28.3949 5.16057 28.9189Z" fill="#DCE2E9" fill-opacity="0.29"/>
<path d="M32.8433 55.6418C34.0163 55.9037 34.9546 56.4277 36.1275 56.6897C47.6222 60.8816 59.3514 65.3354 70.6114 58.2617C80.2294 52.4979 87.7361 40.7084 90.3165 28.1329C90.5511 26.8229 90.7857 25.513 90.7857 24.2031C91.0203 21.0592 91.2549 17.9153 91.2549 14.5095C91.2549 -20.5971 73.1919 -61.9914 59.8205 -92.1202L57.7093 -97.0979C40.8192 -135.872 20.4104 -173.075 2.34734 -206.085C1.64359 -207.395 0.939838 -208.705 0.236084 -209.753L0.236084 -211.063C1.64359 -208.705 2.81651 -206.347 2.81651 -206.347C20.8795 -173.337 41.0538 -135.872 58.1785 -97.0979L60.2897 -92.1202C73.661 -61.9914 91.724 -20.5971 91.724 14.7714C91.724 18.1773 91.4895 21.3212 91.2549 24.4651C91.0203 25.775 91.0203 27.0849 90.7857 28.3949C88.2053 40.9704 80.464 53.0219 70.846 59.0476C59.1168 66.1213 47.153 61.9295 35.6584 57.4757C34.4854 56.9517 33.5471 56.6897 32.3742 56.4277C22.0525 52.7599 11.2616 49.092 0.236095 46.2102L0.236095 45.4242C11.7307 48.3061 22.5216 51.9739 32.8433 55.6418Z" fill="#DCE2E9" fill-opacity="0.29"/>
<path d="M524.061 27.3474C526.641 15.8199 540.951 5.86433 552.211 -2.25733C556.199 -5.13921 559.952 -7.75911 562.767 -10.117C577.781 -23.2165 591.387 -37.8879 604.524 -52.0353C608.042 -55.7031 611.796 -60.4189 615.784 -65.3967C627.982 -80.0681 642.995 -98.1454 656.836 -103.647C668.565 -108.363 679.591 -105.481 690.147 -102.861C698.826 -100.765 707.975 -98.4074 717.593 -100.241C723.458 -101.289 729.322 -105.219 735.422 -109.411C742.694 -114.389 750.2 -119.629 758.411 -119.891C761.226 -119.891 763.806 -119.629 766.621 -118.581C775.301 -115.175 779.289 -111.507 779.289 -107.315C779.289 -103.123 775.301 -98.4074 765.683 -91.5957C756.534 -85.0459 745.743 -82.4261 735.422 -80.0681C725.1 -77.4483 714.309 -75.0904 704.926 -68.2786C687.097 -55.7032 674.195 -33.4341 662.466 -14.0469C661.528 -12.4749 660.589 -10.641 659.651 -9.06905C640.415 23.4176 625.167 49.0926 584.115 60.3581C573.324 63.502 545.643 62.716 531.568 50.1405C524.53 44.3768 522.184 36.5171 524.061 27.3474ZM532.272 49.3545C544.939 60.3581 571.682 62.716 583.88 59.3101C624.463 48.0446 639.477 22.6316 658.713 -9.59305C659.651 -11.165 660.589 -12.7369 661.528 -14.5708C673.022 -34.22 686.159 -56.4891 704.222 -69.3266C713.605 -76.1383 724.631 -78.7582 735.187 -81.1161C745.509 -83.474 756.065 -86.0939 765.214 -92.6436C771.782 -97.0974 778.351 -102.599 778.351 -107.315C778.351 -110.983 774.363 -114.127 766.387 -117.533C763.806 -118.581 761.461 -119.105 758.646 -118.843C750.904 -118.581 743.398 -113.341 736.125 -108.625C730.026 -104.433 724.162 -100.241 718.062 -99.1934C708.444 -97.3594 699.296 -99.7173 690.381 -101.813C679.356 -104.433 669.034 -107.053 657.54 -102.599C643.934 -97.0974 628.92 -79.0202 616.956 -64.6108C612.969 -59.633 608.981 -54.9172 605.462 -51.2493C592.325 -37.1019 578.719 -22.4305 563.706 -9.33106C560.891 -6.97315 557.137 -4.35326 553.15 -1.47138C541.89 6.3883 527.814 16.3439 525.469 27.3474C524.999 29.4434 524.765 31.2773 524.765 33.1112C524.53 39.6609 527.111 44.9007 532.272 49.3545Z" fill="#DCE2E9" fill-opacity="0.29"/>
<path d="M473.157 39.3986C465.181 33.1109 464.008 27.6091 463.07 22.1073C462.366 18.1775 461.428 13.9856 458.378 9.26983L457.909 9.00784C444.538 -4.35361 400.905 -49.1538 400.905 -64.3491C400.905 -66.1831 401.374 -67.493 402.547 -68.541C404.893 -70.6369 409.585 -70.3749 417.091 -68.279C421.548 -66.969 427.648 -54.1316 433.981 -40.7701C439.377 -29.5046 445.007 -17.977 448.995 -14.0472C452.748 -10.6413 457.909 -5.92554 459.786 -6.18753C460.255 -6.18753 460.489 -6.9735 460.959 -8.02146C461.897 -10.3794 463.539 -13.7852 471.046 -11.9513C476.207 -10.6414 481.133 -7.23548 486.059 -3.56763C490.751 -0.423771 494.973 2.72009 499.196 3.76805C510.69 7.17391 531.803 -14.0472 545.878 -27.9326C550.57 -32.6484 554.558 -36.5783 557.607 -38.9362C569.806 -49.1538 580.831 -61.7292 591.622 -74.0427C612.735 -97.8837 634.551 -122.511 664.578 -131.156C709.618 -144.78 749.263 -147.4 782.574 -139.54C800.402 -135.348 825.034 -120.939 825.034 -106.791C825.034 -98.1457 815.65 -91.596 797.118 -87.9282C725.804 -73.2568 702.111 -33.1724 679.122 5.34C658.713 39.6606 639.477 72.1472 589.745 86.0327C570.979 91.2725 541.89 83.1508 525.938 72.6712C518.901 67.9554 514.678 62.1917 510.925 56.4279C507.406 51.4501 504.357 46.7343 499.196 43.0664C495.442 40.4465 491.22 40.9705 486.763 41.4945C482.071 42.0185 477.379 42.5425 473.157 39.3986ZM499.9 41.4945C505.295 45.4243 508.579 50.1402 512.098 55.3799C515.851 60.8817 519.839 66.6455 526.642 71.0993C542.359 81.3169 570.744 89.4385 589.276 84.1988C638.539 70.3133 657.54 38.3506 677.715 4.29203C700.939 -34.7444 724.866 -75.0907 796.884 -89.7621C814.243 -93.4299 823.392 -99.1937 823.392 -106.791C823.392 -118.581 801.106 -133.252 782.105 -137.706C749.028 -145.566 709.618 -142.946 665.047 -130.108C635.489 -121.463 613.908 -97.0978 592.795 -73.5188C582.004 -61.2053 570.744 -48.3678 558.546 -38.1502C555.496 -35.7923 551.508 -31.6005 547.051 -27.1467C531.803 -11.9513 511.16 8.48385 498.727 5.078C494.27 3.76805 489.812 0.624203 485.121 -2.51967C480.429 -5.92554 475.268 -9.33141 470.576 -10.6414C464.477 -12.2133 463.304 -9.85538 462.366 -7.49747C461.897 -6.18753 461.193 -5.13957 460.02 -4.87758C458.378 -4.35359 455.563 -5.66355 447.822 -12.9992C443.365 -17.1911 437.735 -28.9806 432.339 -40.2461C426.709 -52.0356 420.141 -65.6591 416.388 -66.707C407.942 -69.3269 404.658 -68.541 403.251 -67.231C402.547 -66.707 402.312 -65.6591 402.312 -64.6111C402.312 -53.0836 431.401 -19.811 458.847 7.43591C459.082 7.69789 459.316 7.9599 459.316 7.9599C462.835 13.1997 463.539 17.6535 464.477 21.5833C465.65 27.0851 466.589 32.0629 474.095 37.8267C477.614 40.7085 482.071 40.1846 486.528 39.6606C491.22 39.1366 495.912 38.6126 499.9 41.4945Z" fill="#DCE2E9" fill-opacity="0.29"/>
<path d="M0.70346 208.643C0.468875 208.643 0.468875 208.643 0.70346 208.643L0.468875 207.595C2.11097 206.023 3.75306 204.189 6.0989 203.141C12.9019 199.997 20.174 200.783 26.9769 201.831C30.7303 202.355 34.7182 202.879 38.7061 202.617C44.8053 202.355 51.1391 200.783 57.2383 199.473C62.3992 198.425 67.56 197.115 72.7209 196.591C103.686 193.186 131.836 196.329 155.998 205.761C160.925 207.595 168.901 215.193 177.111 223.314C187.667 233.532 198.458 244.273 205.027 244.535C206.434 244.535 207.607 244.273 208.545 243.225C211.126 240.344 211.595 233.008 209.953 221.218C208.78 212.573 205.496 204.189 202.446 196.067C200.569 191.352 198.693 186.636 197.285 181.658C196.816 180.348 196.347 178.776 196.112 177.466C190.951 160.175 183.914 136.072 171.481 132.666C165.616 131.094 158.813 134.238 151.541 142.098C139.812 154.673 127.848 167.511 109.551 176.418C91.9568 184.802 57.9421 194.496 39.4099 190.828C35.6565 190.042 33.0761 188.208 30.4957 186.636C27.2115 184.278 24.1619 182.182 18.5319 183.23C14.3094 184.016 11.9635 185.85 9.85225 187.422C7.27182 189.256 4.92598 191.09 0.468875 190.566L0.468875 189.78C4.69139 190.304 6.80265 188.732 9.38308 186.898C11.4943 185.326 14.0748 183.492 18.5319 182.706C24.3965 181.658 27.6807 184.016 31.1994 186.374C33.5453 187.946 36.1257 189.78 39.6445 190.566C57.9421 194.233 91.9568 184.54 109.316 176.156C127.379 167.511 139.343 154.673 151.072 142.098C158.579 133.976 165.616 130.57 171.716 132.404C184.383 135.81 191.655 159.913 196.816 177.728C197.285 179.3 197.754 180.61 197.989 181.92C199.396 186.636 201.273 191.614 203.15 196.329C206.199 204.451 209.484 212.835 210.891 221.48C211.595 226.196 211.829 230.126 211.829 233.532C211.829 239.034 210.891 242.44 209.249 244.273C208.311 245.321 206.903 245.845 205.261 245.845C198.458 245.321 187.433 234.58 176.876 224.362C168.666 216.503 160.925 208.905 155.998 207.071C131.836 197.639 103.921 194.757 72.9555 198.163C67.7946 198.687 62.6338 199.735 57.7075 201.045C51.6083 202.355 45.2745 203.665 38.9407 204.189C34.9528 204.451 30.9649 203.927 27.2115 203.403C20.174 202.355 13.371 201.569 6.80266 204.713C3.98764 204.975 2.11097 206.809 0.70346 208.643Z" fill="#DCE2E9" fill-opacity="0.29"/>
<path d="M13.6056 122.712C59.8188 139.217 107.674 156.508 141.22 91.7971C146.146 82.1034 149.899 71.3619 152.245 59.5724C154.122 50.1408 155.06 39.9232 155.06 29.1816C154.825 -58.5848 96.6485 -168.096 59.3496 -236.475L61.2263 -236.475C98.5252 -168.096 156.468 -58.8467 156.468 28.9196C156.468 39.9232 155.529 50.1408 153.653 59.8343C151.307 71.6239 147.553 82.8894 142.627 92.583C108.378 158.604 60.0534 141.313 13.1365 124.546C8.91393 122.974 4.69141 121.402 0.468888 120.092L0.468888 118.258C4.92599 119.568 9.14851 121.14 13.6056 122.712Z" fill="#DCE2E9" fill-opacity="0.29"/>
<path d="M585.288 17.9159C585.288 13.9861 589.51 10.3183 592.56 7.43637C593.264 6.91239 593.733 6.38842 594.202 5.86444C596.782 3.24454 599.597 0.886635 602.413 -1.73326C604.055 -3.30519 605.931 -4.87712 607.573 -6.44905L607.808 -6.71106C613.438 -11.9508 616.957 -14.0468 618.833 -13.2608C619.303 -12.9988 620.006 -12.4748 620.241 -11.1649C620.241 -10.9029 620.241 -10.6409 620.241 -10.6409C620.006 -0.161327 611.561 8.22234 606.4 12.4142C601.474 16.344 596.313 19.2259 592.091 20.0119C591.152 20.2739 587.634 20.7978 585.992 19.4879C585.522 19.4879 585.288 18.7019 585.288 17.9159ZM592.091 19.4879C596.079 18.4399 601.24 15.82 605.931 11.8902C610.858 7.96036 619.068 -0.161315 619.303 -10.1169L620.006 -10.1169L619.537 -10.1169C619.537 -10.3789 619.537 -10.3789 619.537 -10.6409C619.537 -11.6889 619.068 -11.6888 619.068 -11.6888C618.364 -11.9508 616.253 -11.9508 609.215 -5.40111L608.981 -5.13911C607.339 -3.56717 605.462 -1.99525 603.82 -0.423311C601.24 1.93459 598.425 4.55449 595.61 7.17438C595.14 7.69836 594.437 8.22234 593.733 8.74631C590.918 11.1042 586.93 14.7721 586.93 18.1779C586.93 18.7019 587.165 19.2259 587.399 19.4879C587.868 20.0119 590.214 19.7499 592.091 19.4879Z" fill="#DCE2E9" fill-opacity="0.29"/>
<path d="M822.922 294.314C819.404 329.158 783.278 366.361 752.782 366.885C705.865 367.671 668.566 337.542 632.44 308.461C626.341 303.483 620.007 298.505 613.673 293.528L609.92 290.646C592.326 277.022 572.152 261.565 550.57 256.325C532.272 252.133 489.578 245.584 474.799 252.657C464.008 257.897 457.909 272.568 451.81 286.978C447.587 296.933 443.834 306.365 438.439 312.915L438.204 313.177C419.906 335.708 419.906 335.708 419.437 350.903C419.203 355.619 419.203 361.383 418.499 369.504C417.56 380.508 416.153 386.796 415.215 391.512C414.511 394.393 414.042 396.751 414.042 398.585C414.042 403.301 417.091 407.231 426.944 420.33C456.267 459.105 507.172 458.319 556.434 457.533C618.365 456.747 682.641 455.699 702.815 534.034C705.63 545.299 707.272 556.303 707.272 566.782C707.272 596.125 695.543 621.276 673.258 639.353C640.65 665.814 589.511 672.888 546.113 656.907C446.18 619.966 389.176 531.938 334.752 437.098C285.255 350.903 271.649 268.901 262.735 198.949C262.031 193.972 261.796 188.994 261.796 184.54C261.796 155.983 274.699 142.622 291.119 125.592C297.453 119.043 303.787 112.231 310.59 103.847C318.097 94.1537 323.258 81.8403 328.418 70.0507C336.629 50.6635 344.37 32.5863 361.495 24.9886C397.855 9.00726 426.475 48.3056 451.575 82.8882C463.07 98.8696 474.095 114.065 485.121 122.973C528.519 158.341 601.944 147.6 642.996 115.637C655.898 105.681 671.85 86.556 688.506 66.3829C716.421 32.8482 747.855 -5.1402 774.598 -11.9519C787.031 -15.0958 795.711 -14.3098 801.341 -9.33203C805.798 -5.40219 808.144 1.67152 808.144 11.6271C808.144 28.1324 802.044 51.7115 795.711 76.6005C787.735 107.253 778.821 141.836 778.821 171.179C778.821 185.326 780.697 196.853 784.92 206.809C789.611 218.075 796.18 227.768 802.748 237.2C813.539 252.657 823.626 267.067 823.626 287.502C823.157 289.86 823.157 291.956 822.922 294.314ZM783.512 207.333C779.524 197.377 777.413 185.326 777.413 171.179C777.413 141.574 786.327 106.729 794.303 76.0765C800.637 51.1875 806.736 27.6085 806.736 11.3651C806.736 1.67153 804.625 -4.61621 800.402 -8.54605C795.242 -13.2619 786.796 -13.7858 774.833 -10.904C748.559 -4.35422 717.125 33.6342 689.444 66.9069C672.554 87.08 656.602 106.467 643.7 116.423C602.179 148.647 528.284 159.127 484.417 123.759C473.392 114.851 462.366 99.6555 450.637 83.4122C425.771 49.0916 397.621 10.0552 361.964 25.7746C345.308 33.1103 337.567 51.1875 329.591 70.3127C324.43 82.3642 319.27 94.6777 311.528 104.371C304.96 112.755 298.392 119.567 292.058 126.116C275.871 142.884 263.204 156.245 263.204 184.278C263.204 188.732 263.438 193.448 264.142 198.425C273.056 268.377 286.662 350.379 335.925 436.05C390.114 530.628 447.118 618.394 546.817 655.073C589.745 670.792 640.416 663.98 672.788 637.781C694.839 619.966 706.334 595.339 706.334 566.258C706.334 556.041 704.927 545.037 701.877 534.034C692.963 499.189 674.431 477.444 645.342 466.964C619.303 457.533 587.4 458.057 556.434 458.581C506.937 459.367 455.563 459.891 426.006 420.854C411.93 402.253 411.696 401.729 414.042 390.988C414.98 386.272 416.388 379.984 417.326 368.98C418.03 360.859 418.264 355.095 418.264 350.641C418.733 334.922 418.733 334.922 437.266 311.867L437.5 311.605C442.661 305.055 446.649 295.885 450.637 286.192C456.736 271.52 463.07 256.587 474.095 251.085C489.109 243.75 532.038 250.299 550.57 254.753C572.386 259.731 592.56 275.45 610.154 289.074L613.908 291.956C620.241 296.671 626.575 301.911 632.674 306.889C668.8 335.97 705.865 365.837 752.313 365.051C782.339 364.527 817.762 327.848 821.28 293.789C821.515 291.694 821.515 289.336 821.515 287.24C821.515 267.067 811.428 252.919 800.872 237.724C795.007 228.554 788.204 218.861 783.512 207.333Z" fill="#DCE2E9" fill-opacity="0.29"/>
<path d="M94.0687 848.159C94.0687 844.753 94.0687 841.348 94.0687 838.204C94.0687 835.06 94.0687 831.916 94.0687 828.772C94.0687 810.957 95.0071 796.809 99.2296 781.09C101.575 772.968 104.86 765.109 108.378 757.773C114.008 745.459 119.404 733.67 119.404 719.522C119.404 717.165 119.169 714.807 118.935 712.449C117.527 702.231 112.132 694.372 106.971 686.774C101.106 678.39 95.4762 670.531 95.4762 659.265C95.4762 658.217 95.4762 657.169 95.7108 656.121C96.4146 649.309 101.81 638.306 107.205 627.564C110.724 620.753 114.008 614.203 115.416 609.749C117.527 603.199 118.7 597.96 119.404 594.292C121.75 583.288 122.688 581.978 140.751 576.476C145.677 574.904 150.369 573.856 155.061 572.809C171.951 568.879 185.088 565.997 197.99 545.824C206.435 532.2 210.657 515.171 210.657 493.426C210.657 471.943 206.669 449.412 203.151 429.5C201.274 419.021 199.632 409.327 198.928 401.992C198.459 397.8 198.224 391.25 198.224 384.438C198.224 365.313 204.558 342.782 213.472 341.21C217.695 340.424 224.263 344.092 230.597 366.361L231.301 368.719C255.463 452.817 286.897 511.241 339.913 570.975C354.458 587.48 361.26 600.055 361.26 610.535C361.26 612.893 360.791 615.513 360.088 617.609C356.334 628.874 343.667 636.996 329.122 646.428C321.616 651.405 312.936 656.907 304.726 663.457C264.846 695.158 235.523 740.482 222.621 791.308C218.868 806.241 216.756 820.912 216.756 834.798C216.756 880.122 236.696 912.085 257.105 942.213L255.697 942.213C235.289 912.085 215.818 880.122 215.818 834.798C215.818 820.912 217.695 805.979 221.683 791.046C234.819 739.958 264.143 694.372 304.256 662.409C312.467 655.859 321.147 650.357 328.653 645.38C343.197 635.948 355.63 628.088 359.149 617.347C359.853 615.251 360.322 612.893 360.322 610.535C360.322 600.317 353.519 588.004 339.21 572.023C285.959 512.289 254.525 453.603 230.128 369.243L229.424 366.885C224.732 350.38 219.102 341.734 213.707 342.782C206.2 344.092 199.397 364.003 199.397 384.7C199.397 391.25 199.632 397.8 200.101 401.992C200.805 409.327 202.447 419.021 204.323 429.5C207.842 449.412 212.065 472.205 212.065 493.688C212.065 515.695 207.842 533.248 199.163 546.872C186.26 567.307 172.655 570.451 155.53 574.38C151.073 575.428 146.381 576.476 141.455 578.048C123.392 583.288 123.157 584.336 120.811 594.816C120.108 598.483 118.935 603.461 116.823 610.273C115.181 614.989 111.897 621.539 108.613 628.35C103.452 638.306 97.8221 649.833 97.1183 656.383C97.1183 657.431 96.8837 658.479 96.8837 659.265C96.8837 670.007 102.279 677.866 108.144 685.988C113.539 693.586 119.169 701.445 120.342 712.187C120.577 714.545 120.811 716.903 120.811 719.26C120.811 733.67 115.181 745.983 109.786 758.035C106.502 765.371 102.983 772.968 100.637 781.09C96.4146 796.547 95.4762 810.695 95.4763 828.51C95.4763 831.654 95.4763 834.798 95.4763 837.942C95.4763 841.348 95.4763 844.491 95.4763 848.159C95.4763 864.141 97.1183 878.55 100.637 891.911C105.094 908.941 110.959 925.708 118.231 942.213L116.823 942.213C109.786 925.708 103.921 908.941 99.4642 892.173C95.9454 878.812 94.0687 864.403 94.0687 848.159Z" fill="#DCE2E9" fill-opacity="0.29"/>
<path d="M117.762 848.159C117.762 826.152 121.281 802.573 125.034 777.946C129.256 749.913 133.714 721.094 133.714 690.18C133.714 688.084 133.714 685.726 133.714 683.63C133.479 672.888 131.837 663.981 130.429 655.859C129.256 649.047 128.084 643.022 128.084 637.258C128.084 623.634 134.417 613.679 150.135 602.675C157.641 597.435 166.79 593.506 175.47 589.838C190.952 583.288 206.904 576.476 216.522 561.543C219.806 556.303 222.387 546.347 224.967 535.868C229.659 517.529 235.054 496.831 246.08 493.95C259.92 490.544 278.921 522.244 289.243 539.274C291.12 542.418 292.762 545.3 293.935 547.133C307.072 567.307 315.986 583.812 315.986 599.531C315.986 601.627 315.751 603.723 315.517 605.819C313.405 618.395 305.429 629.922 290.416 641.712C246.08 676.818 213.707 727.382 199.163 783.972C194.706 801.263 192.36 818.554 192.36 834.798C192.36 880.122 208.781 913.394 226.844 942.213L225.905 942.213C207.842 913.394 191.421 880.122 191.421 834.798C191.421 818.292 193.767 801.263 198.224 783.71C212.769 726.858 245.376 676.294 289.712 641.188C304.726 629.398 312.467 618.133 314.578 605.819C314.813 603.723 315.047 601.627 315.047 599.531C315.047 584.074 306.368 567.569 293.231 547.657C292.058 545.823 290.416 543.204 288.539 539.798C278.452 522.768 259.685 491.33 246.314 494.736C235.758 497.356 230.362 518.053 225.671 536.13C223.09 546.609 220.51 556.565 216.991 561.805C207.373 577 191.187 583.812 175.704 590.362C167.025 594.03 157.876 597.959 150.369 603.199C134.887 613.941 128.553 623.896 128.553 636.996C128.553 642.76 129.491 648.523 130.899 655.335C132.306 663.457 133.948 672.364 134.183 683.106C134.183 685.202 134.183 687.56 134.183 689.656C134.183 720.57 129.726 749.389 125.503 777.422C121.75 802.311 118.231 825.628 118.231 847.635C118.231 861.259 119.639 873.31 122.454 884.314C127.38 903.439 134.652 922.302 143.566 941.951L142.862 941.951C134.183 922.564 126.911 903.701 121.984 884.576C119.169 874.096 117.762 862.045 117.762 848.159Z" fill="#DCE2E9" fill-opacity="0.29"/>
<path d="M951.709 273.879C960.623 267.329 971.883 258.945 979.39 261.827C982.44 262.875 984.785 266.019 986.427 270.473C986.662 271.259 986.897 272.307 986.897 273.355C986.897 283.572 972.822 299.554 960.623 313.701C952.882 322.609 945.375 331.254 943.264 336.232C933.411 360.597 928.72 394.394 924.497 423.999C922.855 435.788 921.213 446.792 919.571 457.009C915.583 480.326 913.472 502.857 913.472 523.817C913.472 592.72 935.757 650.881 979.625 695.943C984.551 700.921 987.131 708.519 987.131 717.95C987.131 747.555 961.327 798.119 913.706 834.012C885.087 855.495 826.675 886.409 756.535 854.185C728.385 841.347 715.248 821.96 715.248 793.665C715.248 772.182 722.285 747.555 730.496 718.998C740.583 683.892 752.078 644.331 752.078 601.627C752.078 568.355 745.275 537.964 731.2 508.359C687.567 417.187 608.277 414.567 544.001 422.427C518.901 425.571 499.196 420.593 486.763 408.017C478.083 399.11 473.391 387.32 473.391 373.435C473.391 347.236 491.689 314.225 526.642 302.436C559.484 291.17 589.511 317.631 623.994 348.284C662.935 382.866 707.272 421.903 766.387 414.305C795.71 410.637 823.86 398.586 841.454 382.342C854.826 370.029 856.233 359.025 857.406 347.76C858.344 338.852 859.283 329.945 865.382 319.203C870.074 311.081 877.815 308.461 886.26 305.842C891.89 304.008 897.989 302.174 902.915 298.244C905.496 296.148 906.2 292.48 906.669 288.288C907.372 283.048 908.311 277.285 914.41 274.141C918.633 272.045 923.559 274.927 928.251 277.547C932.238 279.905 936.461 282.262 939.745 281.477C942.091 280.691 946.548 277.547 951.709 273.879ZM927.312 278.595C922.621 275.975 918.163 273.355 914.645 275.189C909.249 278.071 908.545 283.31 907.607 288.288C906.903 292.48 906.434 296.672 903.15 299.03C897.989 303.222 892.125 305.056 886.26 306.889C878.284 309.509 870.543 311.867 866.086 319.727C860.221 330.207 859.283 339.114 858.344 347.76C856.937 359.549 855.764 370.815 841.923 383.39C823.86 399.896 795.71 411.947 766.153 415.615C706.568 423.213 661.997 383.914 622.822 349.332C588.572 318.941 558.78 292.742 526.642 303.746C492.393 315.273 474.33 347.498 474.33 373.173C474.33 386.534 478.787 398.324 487.232 406.707C499.43 418.759 518.901 423.737 543.532 420.593C608.277 412.733 688.271 415.353 732.138 507.311C746.448 537.178 753.251 567.831 753.251 601.365C753.251 644.331 741.756 684.154 731.669 719.26C723.458 747.555 716.421 772.182 716.421 793.403C716.421 821.436 728.854 839.513 756.769 852.351C826.206 884.314 884.149 853.661 912.533 832.44C958.277 798.381 985.489 747.293 985.489 717.688C985.489 708.519 983.143 701.707 978.452 696.729C934.35 651.143 911.83 592.982 911.83 523.292C911.83 502.071 913.941 479.54 917.929 455.961C919.805 445.744 921.213 434.74 922.855 422.951C927.078 393.084 931.769 359.287 941.856 334.66C943.968 329.421 951.24 321.037 959.45 311.605C971.649 297.72 985.489 282 985.489 272.307C985.489 271.521 985.489 270.735 985.255 269.949C983.847 265.757 981.97 263.137 979.155 262.089C972.118 259.469 961.327 267.591 952.647 273.879C947.486 277.809 943.029 280.953 939.98 281.739C935.757 283.572 931.3 281.215 927.312 278.595Z" fill="#DCE2E9" fill-opacity="0.29"/>
<path d="M927.078 311.081C927.547 312.653 927.782 315.797 927.782 319.465C927.782 327.324 926.609 356.929 913.003 403.039C901.508 441.552 895.409 486.614 895.409 530.104C895.409 601.365 905.027 648.785 957.34 709.828C961.093 714.282 962.97 720.046 962.97 727.12C962.97 753.581 937.165 793.665 904.089 818.554C878.285 837.941 825.738 865.974 762.634 836.893C735.657 824.318 731.904 808.86 731.904 793.665C731.904 775.064 738.707 751.747 746.448 724.762C757.004 688.345 768.734 647.213 768.734 601.627C768.734 565.21 761.227 531.938 745.744 499.451C696.951 397.275 605.932 395.965 541.891 403.825C521.951 406.183 506.234 402.777 497.554 394.131C492.393 388.892 489.578 381.818 489.578 373.434C489.578 354.047 503.888 329.682 530.865 320.251C555.496 311.867 582.004 335.446 612.97 362.955C652.38 397.799 701.643 441.29 767.561 432.906C786.327 430.548 804.391 424.784 820.811 416.139C847.085 402.253 869.37 384.176 887.199 361.907C898.928 347.235 907.138 332.564 913.003 321.822C918.399 312.129 921.683 306.103 924.263 306.627C925.436 306.889 926.374 308.199 927.078 311.081ZM913.707 322.346C907.842 333.088 899.632 347.759 887.903 362.431C870.074 384.7 847.789 403.039 821.281 416.925C804.625 425.57 786.562 431.334 767.795 433.692C701.643 442.075 652.38 398.585 612.735 363.479C582.004 336.232 555.496 312.915 531.334 321.036C504.592 330.206 490.517 354.309 490.517 373.434C490.517 381.818 493.097 388.63 498.258 393.607C506.703 402.253 522.185 405.397 541.891 403.039C606.167 395.179 697.42 396.489 746.448 499.189C761.931 531.676 769.437 565.21 769.437 601.627C769.437 647.475 757.474 688.607 746.917 725.024C739.176 752.009 732.373 775.064 732.373 793.665C732.373 808.336 736.126 823.794 762.869 836.107C825.503 864.926 877.815 836.893 903.62 817.768C935.992 793.665 962.266 753.057 962.266 727.12C962.266 720.308 960.389 714.544 956.87 710.352C931.535 680.748 915.349 653.239 906.2 623.634C898.224 598.221 894.94 570.188 894.94 530.104C894.94 486.614 901.274 441.551 912.768 402.777C926.374 356.667 927.547 327.324 927.547 319.465C927.547 315.797 927.313 312.653 927.078 311.081C926.609 308.723 925.905 307.413 924.967 307.151C922.152 307.151 918.633 313.439 913.707 322.346Z" fill="#DCE2E9" fill-opacity="0.29"/>
<path d="M505.764 373.435C505.764 359.287 518.431 343.83 529.926 338.852C537.433 335.446 550.335 338.066 564.644 345.664C578.016 352.738 588.103 362.431 589.98 369.505C590.214 370.553 590.449 371.601 590.449 372.649C590.449 373.959 590.214 375.007 589.98 376.055C587.165 385.224 582.238 384.962 571.213 384.438C564.41 384.176 555.261 383.652 542.594 385.224C525.469 387.32 512.567 384.438 508.579 380.246C506.937 379.46 505.764 377.627 505.764 373.435ZM542.124 384.438C555.026 382.866 564.175 383.128 570.978 383.652C582.004 384.176 585.992 384.176 588.572 376.055C589.276 374.221 589.276 372.125 588.572 370.029C586.695 363.217 576.843 354.048 563.706 346.974C549.866 339.376 537.198 337.018 529.926 340.162C518.9 345.14 506.467 360.073 506.467 373.435C506.467 377.103 507.406 378.674 508.579 379.722C512.801 383.652 525.469 386.272 542.124 384.438Z" fill="#DCE2E9" fill-opacity="0.29"/>
<path d="M0.468873 250.562L0.468873 248.728C13.1364 244.799 26.9769 241.917 42.2249 240.083C68.733 237.201 103.217 234.581 136.762 240.607C161.159 245.061 171.95 253.968 171.95 269.426C171.95 279.381 167.728 290.647 162.801 304.008C159.283 313.178 155.764 322.871 153.183 332.827C152.949 333.875 152.714 334.661 152.48 335.709C145.442 364.79 144.504 397.538 149.665 432.121C151.072 441.552 153.418 450.984 155.529 459.892C158.813 473.253 162.332 486.877 162.801 501.024C163.036 508.622 162.332 513.861 160.69 517.791C155.764 529.057 143.331 523.555 130.194 517.791C122.453 514.385 114.477 510.98 107.205 510.194C68.9676 507.05 34.0145 530.891 0.703471 562.591L0.703471 560.234C34.0145 528.795 68.9676 505.478 107.205 508.36C114.712 508.884 122.922 512.552 130.663 515.957C143.565 521.721 154.825 526.437 159.048 516.743C160.69 513.337 161.159 508.098 160.925 500.762C160.456 486.877 156.937 473.253 153.653 460.154C151.307 450.984 148.961 441.552 147.788 432.121C142.627 397.276 143.8 364.266 150.838 334.923C151.072 333.875 151.307 332.827 151.541 332.041C154.122 321.823 157.64 312.13 161.159 302.96C166.086 289.861 170.308 278.595 170.308 269.164C170.308 254.754 159.986 246.632 136.528 242.179C103.217 236.153 68.733 238.773 42.4595 241.655C26.9769 243.489 13.1364 246.37 0.468873 250.562Z" fill="#DCE2E9" fill-opacity="0.29"/>
<path d="M463.773 195.02C463.773 197.378 460.958 198.95 454.624 200.784C430.697 207.334 399.028 229.079 382.138 262.875C365.013 296.934 360.556 319.727 358.21 332.04C357.037 338.066 356.333 341.21 354.926 341.996C354.457 342.258 353.753 342.258 353.049 341.734C349.296 339.376 327.949 297.196 323.726 236.152L323.491 233.532C323.022 228.031 322.788 223.315 322.788 218.861C322.788 202.88 326.776 190.304 349.296 160.437C352.814 155.722 356.099 151.006 359.383 146.29C369.235 131.881 377.915 119.305 387.533 120.091C395.04 120.615 402.312 128.999 410.757 146.028C420.14 164.891 438.672 176.419 450.871 184.016C458.612 188.732 463.773 191.876 463.773 195.02ZM410.053 146.29C401.843 129.785 394.336 121.401 387.298 120.615C377.915 119.829 369.47 132.143 359.617 146.29C356.333 151.006 353.049 155.722 349.53 160.437C327.01 190.042 323.022 202.88 323.022 218.337C323.022 222.791 323.257 227.507 323.726 233.008L323.961 235.628C328.183 295.1 349.296 338.328 353.049 340.424C353.753 340.948 354.222 340.686 354.457 340.686C355.63 340.162 356.099 336.756 357.272 331.516C359.617 319.203 364.075 296.41 381.199 262.089C398.089 228.031 429.993 206.286 454.155 199.736C460.02 198.164 462.835 196.592 462.835 194.758C462.835 192.138 457.205 188.732 450.402 184.278C438.203 176.943 419.437 165.415 410.053 146.29Z" fill="#DCE2E9" fill-opacity="0.29"/>
<path d="M504.122 199.998C504.122 202.356 501.776 203.928 496.381 204.976C464.008 211.788 418.264 226.459 393.867 275.713C386.361 290.909 380.261 308.2 375.57 328.373C374.631 332.303 372.051 336.757 369.471 340.949C366.186 346.45 362.902 351.952 362.902 357.192C362.902 357.716 362.902 358.502 363.137 359.026C363.606 361.908 365.013 364.004 366.655 366.1C368.298 368.457 369.94 370.815 369.94 373.697C369.94 374.745 369.705 376.055 369.236 377.365C368.532 379.461 366.89 380.771 365.483 381.819C363.371 383.391 361.495 384.963 361.729 389.417C361.964 393.87 365.013 396.228 368.298 398.848C370.643 400.682 372.755 402.516 374.162 405.136C375.101 406.97 376.039 410.376 376.039 413.52C376.039 415.616 375.57 417.187 374.631 417.973C373.693 418.759 372.286 419.021 370.643 418.497C365.013 416.663 359.853 403.564 356.568 394.656C355.63 392.036 354.692 389.941 353.988 388.369C347.889 375.269 342.493 362.432 338.271 351.166C319.973 304.794 308.948 262.352 304.256 221.743C303.787 217.29 303.552 213.098 303.552 209.692C303.552 189.781 311.294 174.061 337.098 143.409C343.432 135.811 348.827 127.951 353.988 120.616C365.717 103.848 375.101 90.4869 386.595 90.7489C395.744 91.0109 405.596 99.9185 417.56 118.782C436.562 149.173 465.65 169.346 484.886 182.707C496.146 190.567 504.122 196.069 504.122 199.998ZM416.622 118.782C404.893 100.181 395.275 91.2729 386.361 91.0109C375.101 90.7489 365.952 103.848 354.223 120.616C349.062 128.213 343.432 136.073 337.332 143.671C311.763 174.323 304.021 189.781 304.021 209.43C304.021 213.098 304.256 217.028 304.725 221.482C309.417 262.09 320.442 304.27 338.505 350.642C342.728 361.646 348.123 374.745 354.223 387.583C354.926 389.155 355.865 391.251 356.803 393.87C360.087 402.516 365.248 415.616 370.409 417.187C371.816 417.711 372.989 417.449 373.693 416.925C374.631 416.139 374.866 414.306 374.866 413.258C374.866 410.638 373.928 407.232 372.989 405.398C371.816 403.04 369.47 401.206 367.359 399.372C364.075 396.752 360.791 394.132 360.556 389.417C360.087 384.439 362.433 382.867 364.544 381.295C365.952 380.247 367.359 379.199 368.063 377.103C368.532 375.793 368.767 374.745 368.767 373.697C368.767 370.815 367.359 368.719 365.717 366.624C364.31 364.528 362.668 362.17 362.198 359.026C362.198 358.502 361.964 357.716 361.964 357.192C361.964 351.69 365.483 345.926 368.767 340.425C371.347 335.971 373.928 332.041 374.866 328.111C379.558 307.938 385.657 290.647 393.164 275.451C417.795 225.935 463.773 211.002 496.146 204.19C500.838 203.142 503.184 201.832 503.184 199.998C503.184 196.593 495.208 190.829 483.948 182.969C464.712 169.608 435.858 149.173 416.622 118.782Z" fill="#DCE2E9" fill-opacity="0.29"/>
<path d="M798.29 296.672C796.413 314.487 785.388 331.516 770.14 339.638C756.299 347.236 732.606 351.165 699.295 327.848C684.986 317.893 670.441 306.889 656.366 296.41C616.252 266.281 578.484 237.724 540.482 226.197C497.553 212.835 462.13 223.577 429.054 259.731C400.435 291.17 384.014 332.564 384.014 373.435C384.014 404.087 393.632 431.596 411.226 450.721C430.462 471.681 458.846 482.16 492.861 480.85C500.837 480.588 509.047 480.064 517.727 479.802C548.458 478.23 583.411 476.396 612.499 481.898C645.81 488.186 666.453 503.381 675.602 528.27C680.529 541.632 682.874 554.207 682.874 565.735C682.874 586.694 674.664 604.509 659.181 617.346C632.908 639.092 587.633 644.331 546.815 630.446C459.081 600.317 406.769 528.27 350.703 421.379C308.243 340.162 294.872 271.783 287.13 209.691C286.661 204.976 286.192 200.784 286.192 196.592C286.192 170.655 297.921 158.341 312.935 142.884C318.565 136.858 324.664 130.833 330.763 122.973C337.801 114.065 342.023 106.468 345.777 99.6559C351.876 88.6523 357.037 79.2207 370.877 69.0031C398.558 48.306 415.448 76.0768 433.277 105.158C442.66 120.615 452.512 136.596 464.007 144.98C536.728 198.688 614.376 176.943 662.935 138.954C676.775 127.951 689.912 112.231 703.752 95.202C720.642 74.5049 738.236 53.2838 757.707 40.9703C766.152 35.7305 771.782 34.1586 775.066 36.5165C777.412 38.0884 778.585 41.7563 778.585 47.258C778.585 57.2136 774.831 73.195 770.609 91.7962C764.51 117.733 757.003 149.958 757.003 178.515C757.003 193.71 759.114 206.547 763.337 217.027C767.559 227.507 773.659 236.152 779.523 244.798C789.376 258.683 798.525 272.045 798.525 290.646C798.759 292.742 798.525 294.576 798.29 296.672ZM762.868 217.289C758.411 206.547 756.299 193.972 756.299 178.515C756.299 149.958 763.806 117.471 769.905 91.5342C774.128 73.1949 777.881 57.2136 777.881 47.258C777.881 42.0182 776.708 38.6124 774.597 37.0404C771.547 34.9445 765.917 36.5165 757.941 41.4943C738.471 53.5458 721.112 75.0289 704.222 95.464C690.381 112.231 677.244 128.213 663.404 139.216C635.019 161.485 602.646 174.847 569.805 177.467C532.271 180.349 496.614 169.607 463.773 145.504C452.043 136.858 442.191 120.877 432.807 105.42C415.214 76.6008 398.323 49.354 371.346 69.5271C357.506 79.7447 352.345 89.1763 346.48 99.9179C342.727 106.73 338.504 114.589 331.467 123.497C325.368 131.095 319.503 137.382 313.638 143.408C298.86 158.865 287.13 171.179 287.13 196.592C287.13 200.522 287.365 204.976 288.069 209.429C295.81 271.259 308.947 339.638 351.641 420.855C407.707 527.484 459.785 599.531 547.285 629.66C587.868 643.545 632.908 638.306 659.181 616.823C674.429 604.247 682.64 586.432 682.64 565.735C682.64 554.207 680.294 541.894 675.368 528.532C666.454 503.905 646.045 488.972 612.734 482.684C583.645 477.182 548.927 479.016 517.962 480.588C509.282 481.112 501.071 481.374 493.096 481.636C458.846 482.684 430.227 472.205 410.756 451.245C392.928 432.12 383.31 404.349 383.31 373.435C383.31 332.302 399.731 290.646 428.585 259.207C446.179 240.082 464.242 228.031 483.947 222.791C501.541 218.075 520.073 218.861 540.482 225.411C578.484 237.2 616.487 265.757 656.601 295.886C670.676 306.365 684.986 317.369 699.53 327.324C732.606 350.379 756.065 346.45 769.671 339.114C784.684 330.992 795.475 314.487 797.352 296.672C797.586 294.576 797.586 292.742 797.586 290.646C797.586 272.307 788.437 259.207 778.819 245.322C773.189 236.676 767.09 227.769 762.868 217.289Z" fill="#DCE2E9" fill-opacity="0.29"/>
<path d="M769.203 313.963C764.746 320.775 758.412 324.967 750.67 326.015C727.681 329.158 693.901 306.365 672.085 285.668C644.873 259.993 615.784 234.58 587.634 222.267C586.227 221.743 582.239 220.695 577.312 219.647C560.657 215.717 532.741 208.905 532.741 199.212C532.741 198.426 532.976 197.378 533.445 196.592C535.556 192.662 539.779 191.352 546.347 192.924C551.743 194.234 557.842 197.116 563.237 199.736C568.867 202.618 574.028 204.976 576.843 204.976C584.115 204.976 587.165 201.046 590.449 197.378C592.795 194.496 595.375 191.614 599.598 190.566C605.228 189.256 609.45 191.876 613.438 194.234C617.192 196.592 620.945 198.95 626.106 198.164C635.255 196.854 668.331 164.367 697.42 135.81C721.582 112.231 742.46 91.7963 746.448 92.0583C746.682 92.0583 746.917 92.3203 747.152 92.3203C748.559 94.1542 749.263 97.822 749.263 103.324C749.263 111.707 747.621 123.497 745.51 137.12C743.164 153.626 740.349 172.489 740.349 188.732C740.349 201.308 741.991 211.001 745.275 217.813C747.152 221.481 749.263 225.673 751.609 230.127C761.696 249.776 774.363 273.879 774.363 294.576C774.598 301.912 772.721 308.461 769.203 313.963ZM744.806 217.813C741.522 210.739 739.88 201.308 739.88 188.47C739.88 172.227 742.46 153.364 745.04 136.858C746.917 123.235 748.794 111.445 748.794 103.062C748.794 97.822 748.09 94.4162 746.682 92.5822C746.682 92.5822 746.682 92.5822 746.448 92.5822C742.695 92.3203 721.113 113.541 697.889 136.072C668.566 164.629 635.489 197.378 626.106 198.688C620.945 199.474 616.957 197.116 612.969 194.758C608.747 192.138 604.993 189.78 599.598 191.09C595.375 192.138 593.264 194.758 590.684 197.64C587.4 201.308 584.115 205.238 576.609 205.5C573.559 205.5 568.633 203.142 562.768 200.26C557.373 197.64 551.274 194.758 546.113 193.448C540.013 191.876 536.026 192.924 533.914 196.592C533.445 197.378 533.211 198.164 533.211 198.95C533.211 208.119 561.83 214.931 577.312 218.599C582.473 219.909 586.227 220.695 587.634 221.481C615.784 234.056 644.873 259.469 672.085 285.144C693.666 305.579 727.212 328.373 749.967 325.229C757.708 324.181 763.807 320.251 768.03 313.701C771.548 308.461 773.191 301.912 773.191 294.314C773.191 273.879 760.523 249.776 750.436 230.389C748.794 225.673 746.682 221.481 744.806 217.813Z" fill="#DCE2E9" fill-opacity="0.29"/>
<path d="M546.816 528.795C583.412 526.175 608.747 537.964 620.241 549.754C625.402 555.256 628.217 561.281 628.217 566.521C628.217 574.119 622.822 579.883 613.204 582.765C550.335 600.58 484.182 539.798 478.552 532.201C476.91 530.105 476.676 528.533 477.614 527.485C479.256 525.651 484.886 526.175 495.208 527.223C507.172 528.533 525.469 530.367 546.816 528.795ZM478.552 528.533C478.318 528.795 478.318 528.795 478.318 529.057C478.318 529.319 478.552 530.105 479.491 531.415C484.886 538.75 550.57 599.27 612.735 581.455C621.884 578.835 627.044 573.595 627.044 566.521C627.044 561.543 624.229 555.78 619.303 550.54C608.043 538.75 583.177 527.223 546.816 529.843C525.235 531.415 507.172 529.581 494.973 528.533C486.294 527.747 479.725 527.223 478.552 528.533Z" fill="#DCE2E9" fill-opacity="0.29"/>
<path d="M134.183 848.159C134.183 827.724 137.702 804.931 141.221 780.828C145.678 752.009 150.135 722.405 150.135 690.18C150.135 687.822 150.135 685.464 150.135 683.106C150.135 681.272 150.135 679.176 149.9 677.342C149.666 672.365 149.666 667.911 149.666 663.457C149.666 635.686 154.826 618.395 181.569 606.867C198.459 599.794 217.695 591.41 230.128 572.023C233.647 566.521 236.696 561.019 239.277 556.041C245.376 544.776 250.302 535.868 256.871 535.344C262.97 535.082 270.477 541.894 280.798 557.875C290.885 573.071 295.577 585.646 295.577 596.126C295.577 597.174 295.577 597.96 295.577 599.008C294.404 614.203 282.91 624.683 268.6 637.52C262.032 643.546 254.759 650.096 247.722 657.955C217.226 692.014 194.94 733.67 183.446 778.994C178.754 798.119 176.408 816.983 176.408 835.06C176.408 879.598 190.952 913.919 207.608 942.475L206.67 942.475C190.014 913.919 175.704 879.598 175.704 835.06C175.704 816.983 178.285 798.119 182.977 778.994C194.471 733.67 216.757 691.752 247.487 657.693C254.525 649.834 262.032 643.022 268.365 637.258C282.675 624.421 293.7 614.203 295.108 599.27C295.108 598.484 295.108 597.436 295.108 596.388C295.108 585.908 290.182 573.595 280.329 558.661C270.007 542.942 262.97 536.13 256.871 536.392C250.537 536.654 245.845 545.562 239.746 556.565C237.166 561.543 234.116 567.045 230.597 572.547C218.164 592.196 198.694 600.58 181.804 607.653C155.296 618.919 150.369 635.948 150.369 663.457C150.369 667.911 150.369 672.627 150.604 677.342C150.604 679.176 150.604 681.01 150.838 683.106C150.838 685.464 150.838 687.822 150.838 690.18C150.838 722.667 146.381 752.271 141.924 781.09C138.171 805.193 134.887 827.724 134.887 848.159C134.887 859.949 136.06 870.428 138.406 879.86C143.566 900.295 152.011 920.992 162.099 942.475L161.395 942.475C151.542 920.992 143.097 900.295 137.936 880.122C135.356 870.69 134.183 860.211 134.183 848.159Z" fill="#DCE2E9" fill-opacity="0.29"/>
<path d="M544.705 508.621C580.362 505.477 609.216 513.337 625.872 530.628C634.551 539.798 639.477 550.801 639.477 561.805C639.477 577.786 629.625 590.362 614.377 594.03C569.806 605.033 529.457 588.004 503.653 571.761C473.392 552.635 451.81 528.27 444.772 516.481C442.192 512.289 440.55 509.145 440.55 507.311C440.55 506.525 440.784 506.001 441.254 505.739C442.896 504.167 447.118 504.953 455.798 506.001C470.811 508.359 499.431 512.289 544.705 508.621ZM441.488 506.263C441.254 506.525 441.019 506.787 441.019 507.311C441.019 508.883 442.661 512.027 445.007 515.957C460.959 542.418 533.211 613.155 613.908 593.244C628.921 589.576 638.539 577.262 638.539 561.543C638.539 550.539 633.847 539.798 625.168 530.89C608.512 513.861 579.893 506.001 544.705 508.883C499.431 512.813 470.811 508.621 455.563 506.525C447.587 505.739 442.896 505.215 441.488 506.263Z" fill="#DCE2E9" fill-opacity="0.29"/>
<path d="M547.051 493.426C591.388 490.282 626.341 499.976 645.577 520.149C655.43 530.628 660.825 543.204 660.825 556.827C660.825 582.764 642.058 604.771 614.143 611.583C572.856 621.539 532.273 612.893 493.566 586.17C454.156 558.923 428.821 521.197 417.092 501.024C411.227 490.806 408.647 486.352 410.523 484.78C411.931 483.47 416.388 484.256 424.833 486.09C442.896 489.758 481.133 497.88 547.051 493.426ZM410.758 485.304C410.523 485.566 410.523 485.828 410.523 486.352C410.523 488.448 413.104 493.164 417.561 500.762C456.502 567.569 528.519 631.756 613.908 611.059C641.589 604.247 660.121 582.764 660.121 557.089C660.121 543.728 654.96 531.152 645.108 520.935C626.106 500.762 591.153 491.592 547.051 494.474C481.133 498.928 442.896 490.806 424.364 486.876C416.622 485.042 411.931 483.994 410.758 485.304Z" fill="#DCE2E9" fill-opacity="0.29"/>
<path d="M399.732 191.877C399.732 199.212 393.398 204.714 383.78 210.216C366.89 220.172 358.914 240.869 354.457 252.134C352.346 257.898 351.407 259.994 350 259.732C348.827 259.47 348.358 258.16 347.889 250.3C346.481 226.983 366.186 175.109 381.2 169.084C384.718 167.774 387.768 168.822 390.348 171.966C396.917 180.873 399.732 186.899 399.732 191.877ZM381.903 170.656C368.298 176.157 349.531 224.625 349.531 247.68C349.531 248.466 349.531 249.252 349.531 250.038C349.765 254.492 350 256.588 350.235 257.374C350.938 256.326 351.877 253.706 352.815 251.348C357.272 240.083 365.483 218.862 382.842 208.644C393.633 202.094 398.09 197.378 398.09 191.877C398.09 187.161 395.275 181.659 388.941 173.014C387.064 170.394 384.718 169.608 381.903 170.656Z" fill="#DCE2E9" fill-opacity="0.29"/>
<path d="M399.028 214.669C369.939 232.484 359.852 265.233 354.222 291.432C353.753 294.052 352.58 294.314 351.876 294.052C347.184 293.528 338.036 268.639 338.036 231.698C338.036 227.506 338.036 223.315 338.27 219.123C339.209 202.355 360.321 162.533 375.804 148.124C379.792 144.456 383.31 142.622 385.891 143.146C392.459 144.194 395.274 150.482 398.558 158.079C402.077 165.939 406.065 174.847 415.448 179.3C420.844 181.92 423.659 185.064 423.659 189.256C423.424 196.33 415.214 204.713 399.028 214.669ZM414.979 180.61C405.361 176.157 401.139 166.987 397.62 158.865C394.336 151.792 391.755 145.504 385.891 144.718C383.78 144.456 380.495 146.028 376.742 149.434C361.259 163.581 340.616 202.879 339.678 219.385C339.443 223.577 339.443 227.768 339.443 231.96C339.443 268.115 348.357 292.48 352.111 293.004C352.814 293.004 353.049 291.956 353.284 291.432C358.914 264.709 369.235 231.698 398.793 213.621C422.955 198.426 428.82 187.16 414.979 180.61Z" fill="#DCE2E9" fill-opacity="0.29"/>
<path d="M67.56 347.76C67.56 351.166 67.0909 355.358 66.1525 360.073C65.2142 364.789 64.2759 369.505 63.8067 373.697C62.8684 380.77 62.6338 387.582 62.3992 393.608C61.93 400.42 60.2879 406.707 57.2383 412.471C44.5708 436.836 18.2973 447.054 7.741 450.198C5.16057 451.246 2.81472 452.032 0.468877 452.556L0.468877 451.77C2.58014 450.984 4.92598 450.198 7.50641 449.412C18.0627 446.268 43.867 436.05 56.5346 411.947C59.5842 406.183 61.2263 400.158 61.4608 393.346C61.6954 387.32 62.1646 380.509 62.8684 373.435C63.3375 369.243 64.2759 364.789 65.2142 359.811C66.1525 355.096 66.6217 350.904 66.6217 347.498C66.6217 341.734 65.2142 337.542 62.6338 335.184C58.6458 331.517 51.3737 330.993 39.8791 333.612L38.0024 334.136C22.0506 337.542 9.85225 343.568 0.468873 353L0.468873 351.952C10.0868 342.782 22.2852 336.756 38.0024 333.35L39.8791 332.826C51.6083 330.207 59.115 330.731 63.3375 334.66C66.1525 337.542 67.56 341.734 67.56 347.76Z" fill="#DCE2E9" fill-opacity="0.29"/>
<path d="M42.9287 352.737C46.4474 354.833 48.0895 359.025 48.0895 365.575C48.0895 367.409 47.8549 369.243 47.6204 371.077C46.682 378.674 46.2128 386.01 45.9783 392.298C45.9783 394.132 45.5091 395.966 45.2745 397.538C44.8053 399.371 44.1016 401.205 43.1633 403.039C35.6565 417.187 13.8402 433.954 0.468876 434.478L0.468876 433.168C13.371 432.644 35.1874 415.877 42.2249 402.253C43.1632 400.681 43.6324 398.847 44.1016 397.014C44.5708 395.442 44.8053 393.608 44.8053 391.774C45.0399 385.486 45.5091 378.15 46.4474 370.553C47.6204 361.383 45.9783 355.619 42.2249 353.261C36.8295 350.118 26.7423 353.785 15.4823 362.693C9.38308 367.409 4.45681 373.959 0.468873 382.604L0.468873 379.984C4.45681 372.125 9.1485 366.099 14.7785 361.645C26.5077 352.999 37.0641 349.594 42.9287 352.737Z" fill="#DCE2E9" fill-opacity="0.29"/>
<path d="M853.653 291.694C849.665 330.731 808.143 377.103 776.474 389.678C721.347 411.423 677.011 372.911 634.082 335.708C592.795 299.816 553.619 266.019 505.999 282.524C464.477 296.934 442.192 343.306 442.192 379.722C442.192 399.372 448.525 416.139 459.785 427.405C473.157 440.766 493.566 446.006 518.666 442.6C604.993 430.81 699.531 427.405 727.446 535.082C730.73 547.396 732.373 559.709 732.373 571.237C732.373 616.561 709.149 645.38 689.678 661.623C652.379 692.8 596.314 703.541 550.57 688.608C511.629 675.77 474.095 650.619 435.389 611.583C377.915 553.683 328.418 474.825 284.316 370.291L282.44 365.837C263.907 321.823 244.672 276.499 234.115 228.817C233.411 225.935 232.708 222.791 232.004 219.385C228.485 204.714 224.028 186.112 224.028 170.393C224.028 164.105 224.732 158.604 226.139 154.15C228.251 147.338 232.473 143.408 236.461 139.74C239.511 136.859 242.56 134.239 244.906 130.047C246.314 127.427 248.19 122.187 250.067 116.685C253.117 107.778 256.401 98.6081 259.216 95.7262C265.08 90.2244 268.599 91.7963 272.118 93.1063C274.464 94.1542 276.81 95.2022 280.328 93.8922L283.143 92.8443C304.021 84.9846 304.021 84.9846 308.713 66.6454C309.651 63.2395 310.824 58.7857 312.232 53.5459C316.454 38.3505 323.257 32.3248 329.591 26.299C334.517 21.5832 339.209 17.3914 342.962 9.26973C342.962 9.00775 342.962 8.74575 342.962 8.48376C342.962 -0.947858 347.185 -72.4709 362.902 -77.9727C367.125 -79.5446 371.816 -76.1388 376.508 -68.5411C382.607 -58.8475 383.311 -51.2498 383.311 -46.534C383.311 -44.1761 383.076 -42.0802 382.842 -40.2462C382.607 -38.4123 382.607 -36.8404 382.607 -35.2684C382.607 -29.5047 384.015 -23.7409 401.608 -15.6193C405.831 -13.7853 409.584 -12.2134 412.399 -10.9035C426.944 -4.61572 427.178 -4.61571 433.043 11.1036C434.45 15.0335 436.327 19.7493 438.907 26.037C447.352 46.2102 456.736 50.402 468.7 55.6418C475.033 58.5237 482.306 61.6676 490.281 67.4313C498.961 73.7191 505.999 81.3168 512.567 88.3905C524.531 101.228 535.791 113.279 554.558 117.209C587.165 123.759 618.365 104.11 647.218 81.8407C661.293 71.0992 677.48 48.8301 694.604 24.9891C723.927 -15.0953 757.004 -60.4194 787.734 -60.6814C805.328 -60.6814 818.7 -55.7036 827.614 -45.748C837.466 -34.7445 842.158 -18.2392 842.158 4.81588C842.158 38.3505 832.071 79.7448 823.157 116.161C816.119 144.98 810.02 169.607 810.02 185.588C810.02 189.256 810.255 192.138 810.958 194.496C814.946 209.691 823.626 222.005 832.071 233.532C843.096 248.99 853.653 263.661 853.653 284.882C854.122 287.24 853.887 289.598 853.653 291.694ZM809.551 195.282C808.847 192.662 808.612 189.518 808.612 185.85C808.612 169.869 814.712 144.98 821.749 116.161C830.663 79.7448 840.751 38.6125 840.751 5.33987C840.751 -17.4532 836.059 -33.4345 826.676 -43.9141C817.996 -53.6077 804.859 -58.3235 787.969 -58.3235C757.942 -58.0615 725.1 -12.9994 696.247 26.561C678.887 50.14 662.701 72.6711 648.391 83.6746C619.303 106.206 587.869 126.117 554.558 119.567C535.322 115.637 523.827 103.324 511.629 90.2244C505.06 83.1507 498.023 75.553 489.578 69.2652C481.602 63.5015 474.564 60.3576 468.23 57.4757C455.797 51.974 446.18 47.7821 437.5 26.823C434.919 20.5353 433.043 15.8195 431.635 11.8896C425.771 -3.30576 425.771 -3.30578 411.93 -9.33153C408.881 -10.6415 405.362 -12.2134 401.139 -14.0473C384.249 -21.645 380.965 -27.6708 380.965 -35.2684C380.965 -36.8404 381.2 -38.6743 381.2 -40.2462C381.434 -42.3422 381.434 -44.1761 381.434 -46.534C381.434 -51.5118 380.73 -58.0615 374.866 -67.4931C370.409 -74.5668 366.421 -77.4487 362.902 -76.4008C349.296 -71.685 344.135 -4.87769 344.135 8.22177C344.135 8.48376 344.135 8.74575 344.135 8.74575L343.432 9.00772L344.135 9.53172C340.147 18.1774 335.221 22.8932 330.295 27.609C323.726 33.6347 317.627 39.3985 313.405 54.0699C311.997 59.3097 310.824 63.7635 309.886 67.1694C304.96 86.2946 304.725 86.5566 283.143 94.6782L280.328 95.7262C276.34 97.2981 273.525 95.9882 270.945 94.9402C267.661 93.6303 264.846 92.3203 259.919 97.2981C257.104 99.918 254.055 109.35 251.24 117.471C249.363 122.973 247.487 128.213 246.079 131.095C243.733 135.549 240.449 138.43 237.399 141.312C233.411 144.98 229.658 148.648 227.547 154.936C226.139 159.128 225.436 164.367 225.436 170.655C225.436 186.112 229.893 204.452 233.177 219.123C233.881 222.529 234.819 225.673 235.288 228.555C245.844 276.237 265.08 321.561 283.613 365.313L285.489 369.767C329.591 474.039 378.854 552.635 436.092 610.273C474.564 649.047 512.098 674.198 550.57 686.774C595.844 701.707 651.206 690.966 688.271 660.051C707.507 644.07 730.261 615.513 730.261 570.975C730.261 559.447 728.619 547.396 725.57 535.344C698.123 429.238 604.289 432.644 518.666 444.172C493.096 447.578 472.218 442.338 458.378 428.714C446.649 417.187 440.315 399.634 440.315 379.722C440.315 342.782 463.07 295.624 505.295 280.953C553.619 264.185 594.906 300.078 634.785 334.66C677.245 371.601 721.347 409.589 775.536 388.368C806.736 376.055 847.788 330.469 851.541 291.956C851.776 289.86 851.776 287.764 851.776 285.668C851.776 265.233 841.454 250.824 830.429 235.628C822.688 223.315 813.773 211.001 809.551 195.282Z" fill="#DCE2E9" fill-opacity="0.29"/>
<path d="M85.8594 336.757C85.8594 345.664 83.9827 355.62 82.1061 364.266C81.1677 368.719 80.464 372.911 79.9948 376.317C79.2911 382.605 78.8219 388.893 78.5873 394.656C77.8835 406.97 77.4144 418.759 72.7227 427.929C68.9693 435.527 62.6356 440.766 53.4868 444.696C37.0659 451.508 18.7683 459.63 0.470676 471.419L0.470676 470.633C18.5337 458.844 36.8313 450.722 53.2522 443.91C62.1664 440.242 68.2656 435.003 72.0189 427.667C76.7106 418.497 77.1798 406.97 77.8835 394.656C78.1181 388.631 78.5873 382.605 79.291 376.055C79.7602 372.649 80.464 368.457 81.4023 364.004C83.0444 355.358 85.1557 345.664 85.1557 336.757C85.1557 328.111 83.279 322.085 79.291 317.893C69.9077 308.2 48.3259 313.178 36.5967 315.798L34.72 316.322C21.3487 319.203 10.0886 323.919 0.236085 330.731L0.236085 329.683C9.85405 323.133 21.3487 318.417 34.4854 315.536L36.3621 315.012C48.0913 312.392 69.9077 307.414 79.5256 317.369C83.9827 321.561 85.8594 327.849 85.8594 336.757Z" fill="#DCE2E9" fill-opacity="0.29"/>
<path d="M0.468885 539.536L0.468885 537.702C3.51848 534.558 6.3335 531.677 8.91393 529.581C44.1016 500.762 76.4743 487.924 108.143 490.282C120.342 491.33 128.552 489.496 133.009 485.042C135.824 482.161 137.232 478.231 137.232 472.729C137.232 465.131 134.651 455.7 131.836 445.744C129.256 436.836 126.675 427.405 125.972 418.497C125.268 411.947 125.033 405.136 125.033 398.324C125.033 376.055 128.083 355.096 131.602 332.827C132.071 329.159 132.775 325.229 133.244 321.561L133.244 321.299C134.417 313.439 135.59 304.532 135.59 295.886C135.59 279.643 130.663 269.163 120.811 263.924C99.9327 253.182 74.8322 256.064 52.7812 258.684C49.7316 258.946 46.9166 259.47 43.867 259.732C27.6807 261.566 13.371 264.709 0.468873 269.163L0.468873 267.853C13.371 263.4 27.6807 260.256 43.867 258.422C46.682 258.16 49.7316 257.636 52.7812 257.374C75.0667 254.754 100.402 251.61 121.514 262.614C132.071 268.115 136.997 278.857 136.997 295.886C136.997 304.532 135.59 313.701 134.651 321.561L134.651 321.823C134.182 325.491 133.478 329.421 133.009 333.089C129.725 355.358 126.441 376.317 126.441 398.586C126.441 405.66 126.675 412.209 127.379 418.759C128.317 427.405 130.898 436.836 133.244 445.744C136.059 455.7 138.639 465.393 138.639 472.991C138.639 478.755 137.232 483.208 133.947 486.352C129.256 491.068 120.811 492.902 108.143 491.854C76.7088 489.234 44.5708 502.072 9.61768 530.891C7.03725 532.986 3.75307 536.13 0.468885 539.536Z" fill="#DCE2E9" fill-opacity="0.29"/>
<path d="M178.284 531.152C183.914 522.244 186.729 510.193 186.729 493.949C186.729 475.086 182.976 453.865 179.692 435.002C177.815 423.998 175.938 413.519 175 405.135C174.531 400.943 173.592 389.678 173.592 376.054C173.592 350.641 176.642 317.893 191.421 306.889C197.755 302.173 205.965 301.911 215.348 306.365C219.806 308.461 222.151 313.701 224.497 318.941C226.374 323.132 228.251 327.324 231.066 329.682C234.35 332.564 239.276 334.136 243.733 335.708C249.832 337.804 256.166 339.9 259.92 344.878C264.611 350.903 266.722 357.715 266.722 366.099C266.722 371.862 265.784 377.888 264.611 383.652C263.673 389.416 262.5 395.18 262.5 400.681C262.5 406.183 263.438 410.899 265.55 415.091C270.241 425.57 276.81 429.762 283.143 434.216C291.354 439.718 299.095 444.957 302.614 462.249C310.121 498.141 318.097 508.097 337.098 531.938C339.444 535.082 342.259 538.226 345.074 541.893C351.877 550.539 359.618 556.827 366.89 562.853C373.458 568.354 380.496 573.856 386.595 581.192C394.336 590.099 397.621 598.483 401.139 606.605C405.597 617.346 409.819 627.826 424.129 636.995L426.475 638.567C444.538 650.357 461.428 662.146 461.428 669.482C461.428 670.53 460.958 671.578 460.255 672.364C457.674 674.984 450.871 675.77 439.377 674.46C432.574 673.674 426.709 668.434 420.845 663.194C414.511 657.431 408.646 652.191 402.078 652.453C394.336 652.715 390.349 658.217 386.361 663.718C383.311 667.91 380.261 672.102 375.57 674.46C364.075 680.486 353.753 681.796 343.666 683.368C329.826 685.202 316.689 687.035 301.91 700.921C275.402 725.81 255.228 760.654 245.375 798.905C242.091 811.742 240.449 823.532 240.449 835.059C240.449 874.358 259.45 902.391 279.859 932.257C282.205 935.663 284.551 939.069 286.662 942.475L284.316 942.475C282.205 939.331 280.094 936.449 278.217 933.305C257.808 903.177 238.572 874.882 238.572 835.059C238.572 823.27 240.214 811.218 243.499 798.381C253.351 759.606 273.76 724.5 300.503 699.349C315.751 685.202 329.122 683.368 343.197 681.272C353.05 679.962 363.137 678.39 374.397 672.626C378.854 670.268 381.903 666.338 384.719 662.408C388.941 656.645 393.164 650.881 401.609 650.357C408.881 650.095 415.214 655.859 421.548 661.361C427.178 666.338 433.043 671.578 439.142 672.364C452.748 673.674 457.205 672.102 458.847 670.792C459.316 670.268 459.551 669.744 459.551 669.22C459.551 661.884 435.623 646.689 425.536 639.877L423.19 638.305C408.412 628.612 404.189 618.132 399.732 607.129C396.448 599.007 393.164 590.885 385.657 582.24C379.558 575.166 372.755 569.402 366.186 564.163C358.68 557.875 350.938 551.587 344.135 542.941C341.32 539.274 338.74 536.13 336.16 532.986C316.924 508.883 308.948 498.927 301.441 462.511C297.922 446.005 290.65 441.028 282.674 435.788C276.106 431.334 269.537 426.88 264.611 416.139C262.5 411.685 261.562 406.707 261.562 400.943C261.562 395.18 262.5 389.154 263.673 383.39C264.611 377.626 265.784 371.862 265.784 366.361C265.784 358.501 263.673 352.213 259.45 346.188C255.932 341.734 250.067 339.638 243.968 337.542C239.276 335.97 234.35 334.136 230.831 331.254C227.547 328.634 225.67 324.18 223.794 319.989C221.448 315.011 219.336 310.033 215.348 308.199C206.434 304.007 198.928 304.269 192.828 308.723C178.753 319.203 175.704 351.427 175.704 376.578C175.704 390.202 176.642 401.467 177.111 405.397C177.815 413.781 179.692 424.26 181.803 435.264C185.087 454.127 189.075 475.348 189.075 494.473C189.075 510.979 186.26 523.554 180.395 532.724C165.851 555.779 144.035 548.967 122.922 542.679C100.402 535.868 76.9436 528.794 61.6956 557.089C59.819 560.495 58.8806 564.949 58.8806 570.45C58.8806 587.218 67.0911 611.059 75.067 634.114C82.1045 654.025 88.6729 673.15 88.9074 685.463C88.9074 687.297 88.9074 689.131 88.9074 690.703C88.9075 717.164 84.9195 743.887 80.9316 769.824C76.9436 795.761 72.9557 822.484 72.9557 848.683C72.9557 867.022 74.8324 883.789 79.0549 899.509C82.8083 914.18 87.7345 928.589 93.3646 942.737L91.4879 942.737C85.8579 928.589 81.1662 914.442 77.4128 900.033C73.4249 884.051 71.3136 867.284 71.3136 848.683C71.3136 822.222 75.3015 795.499 79.2895 769.562C83.2774 743.887 87.2654 717.164 87.2654 690.703C87.2654 688.869 87.2654 687.297 87.2654 685.463C87.0308 673.412 80.4624 654.811 73.6595 634.9C65.6836 611.845 57.2385 587.742 57.2385 570.45C57.2385 564.425 58.1769 559.709 60.2881 556.041C76.2399 526.698 100.168 533.772 123.391 540.846C144.035 546.871 164.444 552.897 178.284 531.152Z" fill="#DCE2E9" fill-opacity="0.29"/>
<path d="M118.465 308.2C118.465 313.702 117.761 320.252 116.354 329.945C112.6 354.31 110.958 378.675 110.958 406.184C110.958 413.258 110.958 420.331 111.193 427.929C111.193 430.549 111.193 432.907 111.193 435.003C111.193 447.84 109.785 455.176 106.501 460.678C102.513 467.227 95.241 471.157 82.5734 473.777C53.485 479.803 27.4461 492.64 0.468883 514.648L0.468883 513.6C27.4461 491.592 53.485 478.755 82.5734 472.729C95.0064 470.109 102.044 466.441 106.032 459.892C109.316 454.652 110.724 447.054 110.724 434.479C110.724 432.383 110.724 430.025 110.724 427.405C110.489 419.545 110.489 412.472 110.489 405.66C110.489 377.889 112.131 353.524 115.884 329.159C117.292 319.466 117.996 313.178 117.996 307.414C117.996 291.695 113.304 280.167 90.0801 276.237C68.0292 272.569 44.5708 275.713 28.8536 279.381C18.7665 281.739 9.38308 284.621 0.703457 288.551L0.703457 287.765C9.1485 283.835 18.5319 280.691 28.619 278.595C44.3362 275.189 67.7946 271.783 90.0801 275.451C110.02 279.905 118.465 289.075 118.465 308.2Z" fill="#DCE2E9" fill-opacity="0.29"/>
<path d="M100.638 319.204C100.638 321.562 100.404 324.443 99.9345 327.063C96.8849 347.76 95.0082 370.292 94.5391 393.347C94.3045 398.848 94.5391 403.826 94.5391 408.804C94.5391 412.21 94.7736 415.354 94.7736 418.236C94.7736 427.667 94.0699 437.361 89.3782 444.958C85.3903 451.246 79.0565 455.7 69.4385 458.582C43.8688 466.442 21.1141 477.707 0.236093 492.902L0.236093 491.855C20.8795 476.659 43.6342 465.394 69.2039 457.796C78.5873 454.914 84.9211 450.722 88.6744 444.434C93.3661 437.099 93.8353 427.405 93.8353 418.236C93.8353 415.092 93.8353 411.948 93.6007 408.804C93.6007 403.826 93.3661 398.586 93.6007 393.347C94.0699 370.292 95.9466 347.76 98.9962 327.063C100.873 315.012 98.527 306.104 92.6624 300.602C78.8219 288.027 48.0913 294.839 31.4358 298.507C19.9412 301.126 9.38488 304.794 0.236085 310.034L0.236085 309.248C9.61946 304.27 19.9412 300.602 31.4358 297.983C48.0913 294.315 79.2911 287.503 93.3661 300.34C98.2924 304.27 100.638 310.82 100.638 319.204Z" fill="#DCE2E9" fill-opacity="0.29"/>
</g>
<defs>
<radialGradient id="paint0_radial_1_1381" cx="0" cy="0" r="1" gradientUnits="userSpaceOnUse" gradientTransform="translate(301.521 410.707) rotate(-91.3246) scale(331.221 1762.62)">
<stop stop-color="#F0F4F9" stop-opacity="0.34"/>
<stop offset="0.359375" stop-color="#F0F4F9"/>
<stop offset="1" stop-color="#F0F4F9" stop-opacity="0.34"/>
</radialGradient>
</defs>
</svg>
